<svg id="图层_1" data-name="图层 1" xmlns="http://www.w3.org/2000/svg" viewBox="0 0 43.86 42"><defs><style>.cls-1{fill:#78777c;}.cls-2{fill:#333237;}</style></defs><title> EmptyFolder</title><g id="_19_05_05-优化" data-name="19/05/05-优化"><g id="连接设备中"><g id="_-EmptyFolder" data-name="-EmptyFolder"><g id="Rectangle-2"><path class="cls-1" d="M42,42H6a2,2,0,0,1-2-2V2A2,2,0,0,1,6,0h8.67l4.58,5H42a2,2,0,0,1,2,2V40A2,2,0,0,1,42,42ZM6,1A1,1,0,0,0,5,2V40a1,1,0,0,0,1,1H42a1,1,0,0,0,1-1V7a1,1,0,0,0-1-1H18.81L14.23,1Z" transform="translate(-0.14)"/></g><g id="Rectangle-2-2" data-name="Rectangle-2"><g id="path-1"><path class="cls-2" d="M2.14,13h38a2,2,0,0,1,2,1.86l1.72,25A2,2,0,0,1,42,42H3.87a2,2,0,0,1-2-1.86l-1.72-25A2,2,0,0,1,2,13Z" transform="translate(-0.14)"/></g><path class="cls-1" d="M41.86,42h-38a2,2,0,0,1-2-1.86l-1.72-25A2,2,0,0,1,2,13H40.13a2,2,0,0,1,2,1.86l1.72,25A2,2,0,0,1,42,42ZM2.14,14H2.08a1,1,0,0,0-.93,1.07l1.72,25a1,1,0,0,0,1,.93h38a1,1,0,0,0,.75-.34,1,1,0,0,0,.24-.73l-1.72-25a1,1,0,0,0-1-.93Z" transform="translate(-0.14)"/></g></g></g></g></svg>