<?xml version="1.0" encoding="UTF-8"?>
<svg width="12px" height="12px" viewBox="0 0 12 12" version="1.1" xmlns="http://www.w3.org/2000/svg" xmlns:xlink="http://www.w3.org/1999/xlink">
    <!-- Generator: Sketch 52.5 (67469) - http://www.bohemiancoding.com/sketch -->
    <title>loading</title>
    <desc>Created with Sketch.</desc>
    <defs>
        <polygon id="path-1" points="0.04383 0.00201 6.6 0.00201 6.6 6.57681 0.04383 6.57681"></polygon>
    </defs>
    <g id="Page-1" stroke="none" stroke-width="1" fill="none" fill-rule="evenodd">
        <g id="连接设备中" transform="translate(-144.000000, -35.000000)">
            <g id="loading" transform="translate(144.000000, 35.000000)">
                <g id="Page-1">
                    <path d="M6,0 C2.6862,0 0,2.6862 0,6 C0,9.3138 2.6862,12 6,12 C9.3138,12 12,9.3138 12,6 C12,2.6862 9.3138,0 6,0 M6,1.2 C8.6466,1.2 10.8,3.3534 10.8,6 C10.8,8.6466 8.6466,10.8 6,10.8 C3.3534,10.8 1.2,8.6466 1.2,6 C1.2,3.3534 3.3534,1.2 6,1.2" id="Fill-1" fill-opacity="0.2" fill="#FFFFFF"></path>
                    <g id="Group-5" transform="translate(5.400000, 0.000000)">
                        <mask id="mask-2" fill="white">
                            <use xlink:href="#path-1"></use>
                        </mask>
                        <g id="Clip-4"></g>
                        <path d="M6.59913,5.98461 C6.59943,5.98191 6.60003,5.97951 6.60003,5.97681 C6.60003,5.96901 6.59793,5.96151 6.59763,5.95371 C6.57273,2.67891 3.92583,0.03051 0.65163,0.00261 C0.64893,0.00261 0.64653,0.00201 0.64383,0.00201 C0.64293,0.00201 0.64233,0.00201 0.64143,0.00201 C0.64023,0.00201 0.63873,0.00201 0.63753,0.00201 L0.63753,0.00261 C0.30903,0.00591 0.04383,0.27261 0.04383,0.60201 C0.04383,0.93111 0.30903,1.19781 0.63753,1.20141 L0.63753,1.20201 C3.26703,1.22241 5.40003,3.36591 5.40003,5.99991 L5.40243,5.99991 C5.41473,6.32031 5.67663,6.57681 6.00003,6.57681 C6.32343,6.57681 6.58533,6.32031 6.59763,5.99991 L6.60003,5.99991 C6.60003,5.99481 6.59913,5.98971 6.59913,5.98461" id="Fill-3" fill="#FFFFFF" mask="url(#mask-2)"></path>
                    </g>
                </g>
            </g>
        </g>
    </g>
</svg>