<?xml version="1.0" encoding="UTF-8"?>
<svg width="18px" height="18px" viewBox="0 0 18 18" version="1.1" xmlns="http://www.w3.org/2000/svg" xmlns:xlink="http://www.w3.org/1999/xlink">
    <!-- Generator: Sketch 52.5 (67469) - http://www.bohemiancoding.com/sketch -->
    <title>copy</title>
    <desc>Created with Sketch.</desc>
    <g id="Page-1" stroke="none" stroke-width="1" fill="none" fill-rule="evenodd">
        <g id="详情" transform="translate(-336.000000, -247.000000)" fill="#78777C" fill-rule="nonzero">
            <g id="序列号" transform="translate(0.000000, 220.000000)">
                <path d="M350.141732,28.60425 L350.141732,30.213 L348.854893,30.213 L348.854893,28.60425 C348.854893,28.51875 348.823397,28.44 348.760405,28.37925 C348.697413,28.31625 348.620922,28.28475 348.535433,28.28475 L337.606299,28.28475 C337.52081,28.28475 337.44207,28.31625 337.381327,28.37925 C337.320585,28.44225 337.286839,28.51875 337.286839,28.60425 L337.286839,39.537 C337.286839,39.6225 337.318335,39.70125 337.381327,39.762 C337.444319,39.825 337.52081,39.8565 337.606299,39.8565 L339.214848,39.8565 L339.214848,41.1435 L337.606299,41.1435 C337.165354,41.1435 336.785152,40.986 336.472441,40.67325 C336.15748,40.35825 336,39.978 336,39.537 L336,28.60425 C336,28.16325 336.15748,27.783 336.470191,27.47025 C336.782902,27.1575 337.163105,27 337.604049,27 L348.535433,27 C348.976378,27 349.35658,27.15975 349.669291,27.47025 C349.984252,27.78525 350.141732,28.16325 350.141732,28.60425 Z M354,32.463 L354,43.39575 C354,43.83675 353.84027,44.217 353.529809,44.52975 C353.214848,44.84475 352.836895,45 352.395951,45 L341.464567,45 C341.023622,45 340.64342,44.84025 340.330709,44.52975 C340.015748,44.21475 339.860517,43.83675 339.860517,43.39575 L339.860517,32.463 C339.860517,32.022 340.017998,31.64175 340.330709,31.329 C340.64342,31.01625 341.023622,30.85875 341.464567,30.85875 L352.395951,30.85875 C352.836895,30.85875 353.217098,31.0185 353.529809,31.329 C353.84252,31.644 354,32.022 354,32.463 Z" id="copy"></path>
            </g>
        </g>
    </g>
</svg>