<?xml version="1.0" standalone="no"?><!DOCTYPE svg PUBLIC "-//W3C//DTD SVG 1.1//EN" "http://www.w3.org/Graphics/SVG/1.1/DTD/svg11.dtd"><svg t="1553843138841" class="icon" style="" viewBox="0 0 1095 1024" version="1.1" xmlns="http://www.w3.org/2000/svg" p-id="6143" xmlns:xlink="http://www.w3.org/1999/xlink" width="213.8671875" height="200"><defs><style type="text/css"></style></defs><path d="M1004.637157 575.616085h-71.759797v-287.039187-10.2514a209.641121 209.641121 0 0 0-213.741681-205.027991H287.039188a215.279391 215.279391 0 0 0-215.279391 215.279391v430.558781a215.279391 215.279391 0 0 0 215.279391 215.279391h358.798984v71.759796h-358.798984a287.039188 287.039188 0 0 1-287.039188-287.039187v-430.558781A287.039188 287.039188 0 0 1 287.039188 1.53771H717.597969a281.400918 281.400918 0 0 1 287.039188 275.250078v13.326819z m0 0h-71.759797v-287.039187-10.2514a209.641121 209.641121 0 0 0-213.741681-205.027991H287.039188a215.279391 215.279391 0 0 0-215.279391 215.279391v430.558781a215.279391 215.279391 0 0 0 215.279391 215.279391h358.798984v71.759796h-358.798984a287.039188 287.039188 0 0 1-287.039188-287.039187v-430.558781A287.039188 287.039188 0 0 1 287.039188 1.53771H717.597969a281.400918 281.400918 0 0 1 287.039188 275.250078v13.326819z" p-id="6144" fill="#78777C"></path><path d="M218.867381 560.751556h566.902395v56.895267H218.867381zM218.867381 220.40509h340.346465v56.895268H218.867381zM218.867381 730.924788h340.346465v56.895268H218.867381zM218.867381 390.578323h566.902395v56.895268H218.867381z" p-id="6145" fill="#78777C"></path><path d="M717.597969 790.895476m35.879898 0l287.039188 0q35.879898 0 35.879898 35.879898l0 143.519594q0 35.879898-35.879898 35.879898l-287.039188 0q-35.879898 0-35.879898-35.879898l0-143.519594q0-35.879898 35.879898-35.879898Z" p-id="6146" fill="#78777C"></path><path d="M932.87736 862.655273h-71.759797a71.759797 71.759797 0 0 1-71.759797-71.759797v-71.759797a71.759797 71.759797 0 0 1 71.759797-71.759797h71.759797a71.759797 71.759797 0 0 1 71.759797 71.759797v71.759797a71.759797 71.759797 0 0 1-71.759797 71.759797z m-71.759797-143.519594v71.759797h71.759797v-71.759797z m0-35.879899v35.879899z" p-id="6147" fill="#78777C"></path></svg>