<svg id="图层_1" data-name="图层 1" xmlns="http://www.w3.org/2000/svg" viewBox="0 0 48 48"><defs><style>.cls-1{fill:#e0e0e0;}.cls-2{fill:#c8c8c8;}.cls-3{fill:#f4f6ff;}</style></defs><title>default icon</title><g id="通用组建"><g id="default-icon"><rect id="Rectangle-38" class="cls-1" width="14.67" height="48" rx="2" ry="2"/><path id="Shape" class="cls-2" d="M8.05,0a2.79,2.79,0,0,0-1.9.72A2.41,2.41,0,0,0,5.33,2.4V45.6a2.18,2.18,0,0,0,.82,1.68,2.87,2.87,0,0,0,1.9.72H45.28a2.79,2.79,0,0,0,1.9-.72A2.24,2.24,0,0,0,48,45.6V14.67L33.33,0Z"/><path id="Shape-2" data-name="Shape" class="cls-1" d="M48,14.67H35.92a2.65,2.65,0,0,1-2.59-2.59V0Z"/><path id="Combined-Shape-Copy" class="cls-3" d="M17,26.23c0-2.66,0-3.18,0-6.31,0-2.12,3.2-5.77,3.82-4.48V25.82a5.21,5.21,0,0,0,1.49,3.93A4.93,4.93,0,0,0,26,31.17a5.05,5.05,0,0,0,3.68-1.42,5.28,5.28,0,0,0,1.45-3.93V15.45c.65-1.26,3.82,2.33,3.82,4.48v6.31a8.44,8.44,0,0,1-2.58,6.32A9,9,0,0,1,26,35a9,9,0,0,1-6.33-2.44A8.19,8.19,0,0,1,17,26.23Zm8.93-6.46a.55.55,0,0,1-.54-.55V15.55a.54.54,0,1,1,1.09,0v3.67A.55.55,0,0,1,25.94,19.77Z"/></g></g></svg>