<?xml version="1.0" encoding="utf-8"?>
<!-- Generator: Adobe Illustrator 21.1.0, SVG Export Plug-In . SVG Version: 6.00 Build 0)  -->
<svg version="1.1" id="图层_1" xmlns="http://www.w3.org/2000/svg" xmlns:xlink="http://www.w3.org/1999/xlink" x="0px" y="0px"
	 viewBox="0 0 22 22" style="enable-background:new 0 0 22 22;" xml:space="preserve">
<style type="text/css">
	.st0{fill:#5F6065;}
	.st1{fill:#3B3A40;}
</style>
<title>default icon</title>
<g id="Page-3">
	<g id="default-icon">
		<path id="Rectangle-7-Copy-12" class="st0" d="M2,0h18c1.1,0,2,0.9,2,2v18c0,1.1-0.9,2-2,2H2c-1.1,0-2-0.9-2-2V2C0,0.9,0.9,0,2,0z
			"/>
		<path id="Combined-Shape-Copy" class="st1" d="M5.6,11.7c0-1.6,0-1.9,0-3.7c0-1.3,1.9-3.5,2.3-2.7v6.2c0,0.9,0.3,1.7,0.9,2.4
			c0.6,0.6,1.4,0.9,2.2,0.9c0.8,0,1.6-0.3,2.2-0.9c0.6-0.6,0.9-1.5,0.9-2.4V5.3c0.4-0.8,2.3,1.4,2.3,2.7v3.8c0,1.4-0.5,2.8-1.6,3.8
			c-1,1-2.4,1.5-3.8,1.5c-1.4,0-2.8-0.5-3.8-1.5C6.2,14.6,5.6,13.2,5.6,11.7z M11,7.9c-0.2,0-0.3-0.1-0.4-0.3c0,0,0,0,0,0V5.3
			c0-0.2,0.1-0.4,0.3-0.4c0.2,0,0.4,0.1,0.4,0.3c0,0,0,0.1,0,0.1v2.2C11.3,7.7,11.2,7.8,11,7.9L11,7.9z"/>
	</g>
</g>
</svg>
