<svg id="图层_1" data-name="图层 1" xmlns="http://www.w3.org/2000/svg" viewBox="0 0 240 42"><defs><style>.cls-1{fill:#dfe3fd;}.cls-2{fill:#5d75f7;}.cls-3{fill:none;}.cls-4{opacity:0.3;isolation:isolate;}</style></defs><title>设备示意图</title><g id="扫描绑定_登录注册_找回密码_修改密码" data-name="扫描绑定+登录注册+找回密码／修改密码"><g id="扫描设备中"><g id="设备示意图-copy"><g id="Rectangle"><g id="path-1"><path class="cls-1" d="M2,0H238a2,2,0,0,1,2,2V35.15l-1.49,3.61A2,2,0,0,1,236.66,40H3.34a2,2,0,0,1-1.85-1.24L0,35.15V2A2,2,0,0,1,2,0Z"/></g><path class="cls-2" d="M236.66,40H3.34a2,2,0,0,1-1.85-1.24L0,35.15V2A2,2,0,0,1,2,0H238a2,2,0,0,1,2,2V35.15l-1.49,3.61A2,2,0,0,1,236.66,40ZM2,34.75,3.34,38H236.66L238,34.75V2H2Z"/></g><g id="Rectangle-2"><rect class="cls-3" x="97" y="10" width="47" height="16" rx="2" ry="2"/></g><g id="Combined-Shape-Copy"><path class="cls-2" d="M113,18.85c0-2.09,0-2.5,0-5,0-1.67,2.5-4.55,3-3.53v8.17a4.12,4.12,0,0,0,1.16,3.1A3.84,3.84,0,0,0,120,22.73a3.93,3.93,0,0,0,2.88-1.12,4.18,4.18,0,0,0,1.13-3.1V10.35c.51-1,3,1.83,3,3.53v5a6.68,6.68,0,0,1-2,5,7.36,7.36,0,0,1-9.93,0A6.48,6.48,0,0,1,113,18.85Zm7-5.09a.43.43,0,0,1-.42-.43V10.43a.42.42,0,1,1,.85,0v2.89A.43.43,0,0,1,120,13.76Z"/></g><g id="Rectangle-29"><path class="cls-2" d="M1.5,34h237a.5.5,0,0,1,.5.5h0a.5.5,0,0,1-.5.5H1.5a.5.5,0,0,1-.5-.5H1A.5.5,0,0,1,1.5,34Z"/></g><g id="Rectangle-30"><rect class="cls-2" x="8" y="40" width="8" height="2"/></g><g id="Rectangle-30-2" data-name="Rectangle-30"><rect class="cls-2" x="224" y="40" width="8" height="2"/></g><g id="Rectangle-4" class="cls-4"><polygon class="cls-2" points="2 34 238 34 238 38 2 38 2 34"/></g></g></g></g></svg>