<svg id="图层_1" data-name="图层 1" xmlns="http://www.w3.org/2000/svg" viewBox="0 0 44 44"><defs><style>.cls-1{fill:#78777c;opacity:0.2;}.cls-2{fill:#77767b;}</style></defs><title>Disconnected</title><g id="_19_05_05-优化" data-name="19/05/05-优化"><g id="网络无法连接"><g id="Disconnected"><rect id="Rectangle-2" class="cls-1" x="1" y="22" width="22" height="15"/><path id="Shape" class="cls-2" d="M28.65,30.66a16.25,16.25,0,0,1-5.13-.87A.94.94,0,0,1,23,29V22H16c-.28,0-1,0-1.07-.24a13.55,13.55,0,0,1-1.59-6.44A15.33,15.33,0,1,1,28.65,30.66Zm-4.16-2a14.32,14.32,0,0,0,4.19.66,13.94,13.94,0,1,0-14-14A13.46,13.46,0,0,0,16,21.13h7.8a.69.69,0,0,1,.69.69Z"/><path id="Shape-2" data-name="Shape" class="cls-2" d="M41,23.49H23.8a.35.35,0,1,1,0-.69H41.06a.33.33,0,0,1,.35.35A.38.38,0,0,1,41,23.49ZM41,7.86H16.28a.35.35,0,1,1,0-.69H41a.33.33,0,0,1,.35.35A.35.35,0,0,1,41,7.86Z"/><path id="Shape-3" data-name="Shape" class="cls-2" d="M28.65,30.31a.33.33,0,0,1-.35-.35V.69a.35.35,0,1,1,.69,0V30A.35.35,0,0,1,28.65,30.31Z"/><path id="Shape-4" data-name="Shape" class="cls-2" d="M43.31,15.66H14A.35.35,0,1,1,14,15H43.31a.35.35,0,0,1,0,.69Z"/><path id="Shape-5" data-name="Shape" class="cls-2" d="M28.65,30.31c-1.91,0-3.74-1.21-5.16-3.36a.49.49,0,0,1-.07-.21V22.17H21.65a.34.34,0,0,1-.35-.24,25.58,25.58,0,0,1-.83-6.58c0-8.25,3.64-15,8.14-15s8.14,6.72,8.14,15S33.16,30.31,28.65,30.31Zm-4.5-3.67c1.32,1.94,2.88,3,4.5,3,4.12,0,7.45-6.41,7.45-14.27S32.77,1,28.65,1,21.2,7.45,21.2,15.31a25.49,25.49,0,0,0,.73,6.17h1.84a.33.33,0,0,1,.35.35v4.82Z"/><path id="Shape-6" data-name="Shape" class="cls-2" d="M23,38H1a1.34,1.34,0,0,1-1-1V22a1.34,1.34,0,0,1,1-1H23.31a.69.69,0,0,1,.69.69V37A1.34,1.34,0,0,1,23,38ZM1,37H23V22H1Z"/><path id="Shape-7" data-name="Shape" class="cls-2" d="M18.65,28.27a.32.32,0,0,1-.24-.1A8.87,8.87,0,0,0,6,28.17a.34.34,0,0,1-.48,0,.32.32,0,0,1,0-.47,9.62,9.62,0,0,1,13.35,0,.32.32,0,0,1,0,.47A.32.32,0,0,1,18.65,28.27Zm-3.46,3.39a.32.32,0,0,1-.24-.1,4,4,0,0,0-5.47,0,.34.34,0,0,1-.48,0,.32.32,0,0,1,0-.47,4.64,4.64,0,0,1,6.43,0,.32.32,0,0,1,0,.47A.32.32,0,0,1,15.19,31.66ZM12,35.77a1,1,0,1,1,1-1A1,1,0,0,1,12,35.77ZM18.23,44H5.75c-.41,0-.75-.22-.75-.49s.34-.49.75-.49H18.23c.41,0,.75.22.75.49S18.64,44,18.23,44Z"/><path id="Shape-8" data-name="Shape" class="cls-2" d="M14.37,44H9.65A.64.64,0,0,1,9,43.36V37.64A.64.64,0,0,1,9.65,37h4.72a.64.64,0,0,1,.64.64v5.72A.64.64,0,0,1,14.37,44ZM10,43h4V38H10Z"/><path id="Combined-Shape" class="cls-2" d="M33,32a6,6,0,0,1,5.22,3,6,6,0,0,1,0,6A6,6,0,1,1,33,32Zm2.68,8.05L33.56,38l2.09-2.1a.43.43,0,0,0,0-.6l0,0a.42.42,0,0,0-.6,0l-2.09,2.1-2.09-2.1a.42.42,0,0,0-.6,0l0,0a.43.43,0,0,0,0,.6L32.28,38l-2.09,2.1a.43.43,0,0,0,0,.61l0,0a.42.42,0,0,0,.6,0l2.09-2.1L35,40.69a.42.42,0,0,0,.6,0l0,0A.43.43,0,0,0,35.65,40.05Z"/></g></g></g></svg>