<svg id="图层_1" data-name="图层 1" xmlns="http://www.w3.org/2000/svg" xmlns:xlink="http://www.w3.org/1999/xlink" viewBox="0 0 35 35"><defs><style>.cls-1{fill:#fff;}.cls-2{opacity:0.23;isolation:isolate;}.cls-3{fill:#bd10e0;}.cls-4{mask:url(#mask);}.cls-5{mask:url(#mask-2-2);}</style><mask id="mask" x="11" y="12.96" width="13.98" height="11.03" maskUnits="userSpaceOnUse"><g transform="translate(0 0)"><g id="mask-2"><polygon id="path-1" class="cls-1" points="11 12.96 24.98 12.96 24.98 23.99 11 23.99 11 12.96"/></g></g></mask><mask id="mask-2-2" x="11" y="10.02" width="13.98" height="8.82" maskUnits="userSpaceOnUse"><g transform="translate(0 0)"><g id="mask-4"><polygon id="path-3" class="cls-1" points="11 10.02 24.98 10.02 24.98 18.84 11 18.84 11 10.02"/></g></g></mask></defs><title>Disk icon</title><g id="Page-3"><g id="方案07-文件"><g id="磁盘磁盘02"><g id="磁盘icon"><g id="Oval-Copy" class="cls-2"><path class="cls-1" d="M17.5,35A17.5,17.5,0,1,1,35,17.5,17.52,17.52,0,0,1,17.5,35Zm0-32.5a15,15,0,1,0,15,15A15,15,0,0,0,17.5,2.5Z" transform="translate(0 0)"/></g><g id="Page-1"><g id="Fill-1"><path class="cls-3" d="M21.4,21.78a.74.74,0,0,0,.36.64.7.7,0,0,0,.72,0,.75.75,0,0,0,0-1.27.7.7,0,0,0-.72,0,.74.74,0,0,0-.36.64" transform="translate(0 0)"/></g><g id="Group-5"><g class="cls-4"><g id="Fill-3"><path class="cls-1" d="M14.62,14.8c0,.66.65,1.26,1.69,1.59a6,6,0,0,0,3.39,0c1-.33,1.69-.94,1.69-1.59,0-1-1.52-1.84-3.39-1.84S14.62,13.78,14.62,14.8ZM25,20.33a.77.77,0,0,0-.73-.76H11.73a.9.9,0,0,0-.73.76v2.83a.92.92,0,0,0,.87.83H24.11a.86.86,0,0,0,.87-.83ZM12.75,22.61a.29.29,0,0,1-.58,0V21a.29.29,0,0,1,.58,0v1.65Zm1.94,0a.29.29,0,0,1-.58,0V21a.29.29,0,0,1,.58,0Zm1.94,0a.29.29,0,0,1-.58,0V21a.29.29,0,0,1,.58,0Zm1.94,0a.29.29,0,0,1-.58,0V21a.29.29,0,0,1,.58,0Z" transform="translate(0 0)"/></g></g></g><g id="Group-8"><g class="cls-5"><g id="Fill-6"><path class="cls-1" d="M11.6,18.69h13c.15.07.3.07.38.15l-1.43-8A1.2,1.2,0,0,0,22.5,10h-9a1,1,0,0,0-1,.8l-1.51,8c.15-.07.23-.07.38-.15ZM18,12.33c2.41,0,4.21,1.16,4.21,2.6s-1.81,2.6-4.21,2.6-4.21-1.16-4.21-2.6S15.66,12.33,18,12.33Z" transform="translate(0 0)"/></g></g></g></g></g></g></g></g></svg>