<svg id="图层_1" data-name="图层 1" xmlns="http://www.w3.org/2000/svg" viewBox="0 0 48 48"><defs><style>.cls-1{fill:#4a90e2;}.cls-2{fill:#5c9fed;}.cls-3,.cls-4{fill:#fff;}.cls-4{opacity:0.95;isolation:isolate;}</style></defs><title>doc icon@2x</title><g id="扫描绑定_登录注册_找回密码_修改密码" data-name="扫描绑定+登录注册+找回密码／修改密码"><g id="doc-icon"><rect id="Rectangle-7-Copy-12" class="cls-1" width="48" height="48" rx="2" ry="2"/><path id="Combined-Shape" class="cls-2" d="M4,9.33H44V12H4ZM4,16H24v2.67H4Zm0,6.67H44v2.67H4Zm0,6.67H36V32H4ZM4,36H44v2.67H4Z"/><path id="W" class="cls-3" d="M32.87,35.09H27.95a.4.4,0,0,1-.45-.32l-3-10.53h-.06l-3,10.53a.4.4,0,0,1-.45.32H16a.4.4,0,0,1-.45-.32L9.35,13.65a.22.22,0,0,1,.22-.32h6.59a.37.37,0,0,1,.42.32L19,25.17h.06l3-11.52a.4.4,0,0,1,.45-.32h3.87a.4.4,0,0,1,.45.32L30,25.17h.06l2.34-11.52a.37.37,0,0,1,.42-.32h6.53a.22.22,0,0,1,.22.32L33.32,34.77A.4.4,0,0,1,32.87,35.09Z"/><path id="Rectangle-16" class="cls-4" d="M2,0H16V6a2,2,0,0,1-2,2H0V2A2,2,0,0,1,2,0Z"/><path id="doc" class="cls-1" d="M3.06,5.75A1,1,0,0,0,4,6.2a1,1,0,0,0,.8-.42,2,2,0,0,0,.31-1.21A1.78,1.78,0,0,0,4.77,3.4,1,1,0,0,0,4,3a1.06,1.06,0,0,0-.86.41,1.86,1.86,0,0,0-.33,1.2A2.07,2.07,0,0,0,3.06,5.75ZM4.64,2.61A1.89,1.89,0,0,1,5.07,3V.91h.68V6.67H5.11V6.08a1.52,1.52,0,0,1-.58.56,1.67,1.67,0,0,1-.77.17,1.56,1.56,0,0,1-1.21-.59A2.3,2.3,0,0,1,2,4.66,2.7,2.7,0,0,1,2.5,3.08a1.53,1.53,0,0,1,1.33-.67A1.49,1.49,0,0,1,4.64,2.61ZM9.13,5.68a2.64,2.64,0,0,0,.26-1.18,2.1,2.1,0,0,0-.19-1,1.05,1.05,0,0,0-1-.58,1,1,0,0,0-.94.49A2.28,2.28,0,0,0,7,4.65a2,2,0,0,0,.29,1.11,1,1,0,0,0,.93.45A1,1,0,0,0,9.13,5.68ZM9.57,2.9a2.11,2.11,0,0,1,.56,1.59,2.72,2.72,0,0,1-.49,1.67,1.78,1.78,0,0,1-1.53.66,1.72,1.72,0,0,1-1.37-.58,2.31,2.31,0,0,1-.51-1.57A2.5,2.5,0,0,1,6.77,3,1.8,1.8,0,0,1,8.2,2.36,1.89,1.89,0,0,1,9.57,2.9Zm3.89-.2A1.65,1.65,0,0,1,14,3.89h-.68A1.26,1.26,0,0,0,13,3.25.9.9,0,0,0,12.31,3a1,1,0,0,0-1,.66,2.61,2.61,0,0,0-.19,1.05,2,2,0,0,0,.27,1.06A1,1,0,0,0,13,5.92a1.47,1.47,0,0,0,.35-.73H14a1.83,1.83,0,0,1-.59,1.22,1.83,1.83,0,0,1-1.2.38,1.6,1.6,0,0,1-1.31-.6,2.29,2.29,0,0,1-.49-1.5A2.52,2.52,0,0,1,10.95,3a1.73,1.73,0,0,1,1.36-.61A1.82,1.82,0,0,1,13.46,2.71Z"/></g></g></svg>