<svg id="图层_1" data-name="图层 1" xmlns="http://www.w3.org/2000/svg" viewBox="0 0 22 22"><defs><style>.cls-1{fill:#4a90e2;}.cls-2{fill:#fff;}</style></defs><title>doc icon</title><g id="Page-3"><g id="Artboard"><g id="doc-icon"><rect id="Rectangle-7-Copy-12" class="cls-1" width="22" height="22" rx="2" ry="2"/><path id="W" class="cls-2" d="M15.07,16.08H12.81a.18.18,0,0,1-.21-.15l-1.38-4.83h0L9.82,15.94a.18.18,0,0,1-.21.15H7.35a.18.18,0,0,1-.21-.15L4.29,6.26a.1.1,0,0,1,.1-.15h3a.17.17,0,0,1,.19.15l1.11,5.28h0l1.38-5.28a.18.18,0,0,1,.21-.15H12.1a.18.18,0,0,1,.21.15l1.44,5.28h0l1.07-5.28A.17.17,0,0,1,15,6.11h3a.1.1,0,0,1,.1.15l-2.86,9.68A.18.18,0,0,1,15.07,16.08Z" transform="translate(0 0)"/></g></g></g></svg>