<?xml version="1.0" standalone="no"?><!DOCTYPE svg PUBLIC "-//W3C//DTD SVG 1.1//EN" "http://www.w3.org/Graphics/SVG/1.1/DTD/svg11.dtd"><svg t="1557373112982" class="icon" style="" viewBox="0 0 1280 1024" version="1.1" xmlns="http://www.w3.org/2000/svg" p-id="7219" xmlns:xlink="http://www.w3.org/1999/xlink" width="250" height="200"><defs><style type="text/css"></style></defs><path d="M211.073787 443.38383l292.300783-327.479214a74.194509 74.194509 0 0 0 0-95.941176 58.204313 58.204313 0 0 0-81.230195-6.396078l-6.396079 6.396078L27.506337 447.861085A86.347058 86.347058 0 0 0 0.0032 511.821869a95.941176 95.941176 0 0 0 27.503137 63.960784l388.241959 428.537253a56.28549 56.28549 0 0 0 81.230196 4.477255l4.477255-4.477255a74.194509 74.194509 0 0 0 0-95.941176L211.073787 580.899516H1215.258097A63.960784 63.960784 0 0 0 1279.218881 511.821869a63.960784 63.960784 0 0 0-63.960784-63.960784z" fill="#FFFFFF" p-id="7220"></path></svg>