<?xml version="1.0" standalone="no"?><!DOCTYPE svg PUBLIC "-//W3C//DTD SVG 1.1//EN" "http://www.w3.org/Graphics/SVG/1.1/DTD/svg11.dtd"><svg t="1545793270182" class="icon" style="" viewBox="0 0 1024 1024" version="1.1" xmlns="http://www.w3.org/2000/svg" p-id="4042" xmlns:xlink="http://www.w3.org/1999/xlink" width="200" height="200"><defs><style type="text/css"></style></defs><path d="M78.769231 0h405.661538a78.769231 78.769231 0 0 1 76.406154 59.470769L630.153846 329.255385H39.384615a39.384615 39.384615 0 0 1-39.384615-39.384616V78.769231a78.769231 78.769231 0 0 1 78.769231-78.769231z" fill="#4E65EF" p-id="4043"></path><path d="M630.153846 329.255385H39.384615a39.384615 39.384615 0 0 1-39.384615-39.384616V78.769231a78.769231 78.769231 0 0 1 78.769231-78.769231h405.661538a78.769231 78.769231 0 0 1 76.406154 59.470769zM78.769231 39.384615a39.384615 39.384615 0 0 0-39.384616 39.384616v211.101538h538.387693l-55.138462-220.553846a39.384615 39.384615 0 0 0-39.384615-29.932308z" fill="#4E65EF" p-id="4044"></path><path d="M17.723077 197.710769m76.012308 0l835.741538 0q76.012308 0 76.012308 76.012308l0 659.298461q0 76.012308-76.012308 76.012308l-835.741538 0q-76.012308 0-76.012308-76.012308l0-659.298461q0-76.012308 76.012308-76.012308Z" fill="#C9CFF1" p-id="4045"></path><path d="M925.538462 1024h-827.076924A98.461538 98.461538 0 0 1 0 925.538462V281.206154a98.461538 98.461538 0 0 1 98.461538-98.461539h827.076924a98.461538 98.461538 0 0 1 98.461538 98.461539V925.538462a98.461538 98.461538 0 0 1-98.461538 98.461538zM98.461538 222.129231A59.076923 59.076923 0 0 0 39.384615 281.206154V925.538462A59.076923 59.076923 0 0 0 98.461538 984.615385h827.076924a59.076923 59.076923 0 0 0 59.076923-59.076923V281.206154a59.076923 59.076923 0 0 0-59.076923-59.076923z" fill="#4E65EF" p-id="4046"></path></svg>