<svg id="图层_1" data-name="图层 1" xmlns="http://www.w3.org/2000/svg" viewBox="0 0 22 22"><defs><style>.cls-1{fill:#eba027;}.cls-2{fill:#fff;}.cls-3{fill:#f8c93e;}</style></defs><title>Folder icon</title><g id="PC端"><g id="PC界面-未选中文件"><g id="右侧内容区域"><g id="Document"><g id="Folder-icon"><path id="Rectangle-7-Copy-4" class="cls-1" d="M1,2H20a2,2,0,0,1,2,2V20a2,2,0,0,1-2,2H2a2,2,0,0,1-2-2V3A1,1,0,0,1,1,2Z"/><path id="Rectangle-10" class="cls-1" d="M1,0H7.21a1,1,0,0,1,.88.53L9,2.27A.5.5,0,0,1,8.57,3H0V1A1,1,0,0,1,1,0Z"/><rect id="Rectangle-5" class="cls-2" x="2" y="4" width="18.5" height="5" rx="0.5" ry="0.5"/><path id="Rectangle-7-Copy-4-2" data-name="Rectangle-7-Copy-4" class="cls-3" d="M1,6H21a1,1,0,0,1,1,1V20a2,2,0,0,1-2,2H2a2,2,0,0,1-2-2V7A1,1,0,0,1,1,6Z"/></g></g></g></g></g></svg>