<svg id="图层_1" data-name="图层 1" xmlns="http://www.w3.org/2000/svg" viewBox="0 0 26.97 26.7"><defs><style>.cls-1{fill:#c9cff1;}.cls-2{fill:#a1acf1;}.cls-3{fill:#4e65ef;}</style></defs><title>home icon02</title><g id="扫描绑定_登录注册_找回密码_修改密码" data-name="扫描绑定+登录注册+找回密码／修改密码"><g id="home-icon02"><path id="Polygon" class="cls-1" d="M14.74,10.85l12,6.85a1.5,1.5,0,0,1,0,2.6l-12,6.85a1.5,1.5,0,0,1-1.49,0l-12-6.85a1.5,1.5,0,0,1,0-2.6l12-6.85A1.5,1.5,0,0,1,14.74,10.85Z" transform="translate(-0.52 -0.65)"/><path id="Polygon-2" data-name="Polygon" class="cls-2" d="M14.74,5.85l12,6.85a1.5,1.5,0,0,1,0,2.6l-12,6.85a1.5,1.5,0,0,1-1.49,0l-12-6.85a1.5,1.5,0,0,1,0-2.6l12-6.85A1.5,1.5,0,0,1,14.74,5.85Z" transform="translate(-0.52 -0.65)"/><path id="Polygon-3" data-name="Polygon" class="cls-3" d="M14.74.85l12,6.85a1.5,1.5,0,0,1,0,2.6l-12,6.85a1.5,1.5,0,0,1-1.49,0l-12-6.85a1.5,1.5,0,0,1,0-2.6l12-6.85A1.5,1.5,0,0,1,14.74.85Z" transform="translate(-0.52 -0.65)"/></g></g></svg>