<svg id="图层_1" data-name="图层 1" xmlns="http://www.w3.org/2000/svg" viewBox="0 0 26.97 26.7"><defs><style>.cls-1{fill:#979797;}.cls-2{fill:#d8d8d8;}</style></defs><title>home icon01</title><g id="扫描绑定_登录注册_找回密码_修改密码" data-name="扫描绑定+登录注册+找回密码／修改密码"><g id="home-icon01"><path id="Polygon" class="cls-1" d="M13.73,11.07a.5.5,0,0,0-.5,0l-12,6.85a.5.5,0,0,0,0,.87l12,6.85a.5.5,0,0,0,.5,0l12-6.85a.5.5,0,0,0,0-.87Zm.5-.87,12,6.85a1.5,1.5,0,0,1,0,2.6l-12,6.85a1.5,1.5,0,0,1-1.49,0l-12-6.85a1.5,1.5,0,0,1,0-2.6l12-6.85A1.5,1.5,0,0,1,14.23,10.2Z" transform="translate(0 0)"/><path id="Polygon-2" data-name="Polygon" class="cls-1" d="M13.73,6.07a.5.5,0,0,0-.5,0l-12,6.85a.5.5,0,0,0,0,.87l12,6.85a.5.5,0,0,0,.5,0l12-6.85a.5.5,0,0,0,0-.87Zm.5-.87,12,6.85a1.5,1.5,0,0,1,0,2.6l-12,6.85a1.5,1.5,0,0,1-1.49,0l-12-6.85a1.5,1.5,0,0,1,0-2.6l12-6.85A1.5,1.5,0,0,1,14.23,5.2Z" transform="translate(0 0)"/><path id="Path" class="cls-1" d="M14.23.2,26.21,7a1.5,1.5,0,0,1,0,2.6l-12,6.85a1.5,1.5,0,0,1-1.49,0L.76,9.65A1.5,1.5,0,0,1,.76,7L12.74.2A1.5,1.5,0,0,1,14.23.2Z" transform="translate(0 0)"/><path id="Polygon-3" data-name="Polygon" class="cls-2" d="M13.73,1.07a.5.5,0,0,0-.5,0l-12,6.85a.5.5,0,0,0,0,.87l12,6.85a.5.5,0,0,0,.5,0l12-6.85a.5.5,0,0,0,0-.87Z" transform="translate(0 0)"/></g></g></svg>