<svg id="图层_1" data-name="图层 1" xmlns="http://www.w3.org/2000/svg" viewBox="0 0 22 22"><defs><style>.cls-1{fill:#ff4747;}.cls-2{fill:#ffe7e7;}</style></defs><title>image icon</title><g id="_19_04_25-优化" data-name="19/04/25-优化"><g id="image-icon"><g id="Rectangle-7-Copy-10"><path class="cls-1" d="M1.83.46H20.17a1.38,1.38,0,0,1,1.38,1.38V20.17a1.37,1.37,0,0,1-1.37,1.37H1.83A1.37,1.37,0,0,1,.46,20.17V1.83A1.38,1.38,0,0,1,1.83.46Z"/><path class="cls-1" d="M20.17,22H1.83A1.84,1.84,0,0,1,0,20.17V1.83A1.84,1.84,0,0,1,1.83,0H20.17A1.84,1.84,0,0,1,22,1.83V20.17A1.84,1.84,0,0,1,20.17,22ZM1.83.92a.92.92,0,0,0-.92.92V20.17a.92.92,0,0,0,.92.92H20.17a.92.92,0,0,0,.92-.92V1.83a.92.92,0,0,0-.92-.92Z"/></g><g id="Rectangle-11"><path class="cls-2" d="M6.21,11.54.46,15.37v5.25a.92.92,0,0,0,.92.92H20.63a.92.92,0,0,0,.92-.92V11.9L17.21,8.19l-6.13,6.13Z"/><path class="cls-1" d="M20.63,22H1.38A1.38,1.38,0,0,1,0,20.63v-5.5L6.19,11,11,13.75l6.19-6.19L22,11.69v8.94A1.38,1.38,0,0,1,20.63,22ZM.92,15.62v5a.46.46,0,0,0,.46.46H20.63a.46.46,0,0,0,.46-.46V12.11l-3.85-3.3-6.08,6.08L6.22,12.08Z"/></g><g id="Oval-2"><circle class="cls-1" cx="6.57" cy="7.26" r="1.99"/><path class="cls-2" d="M6.57,9.7A2.44,2.44,0,1,1,9,7.26,2.45,2.45,0,0,1,6.57,9.7Zm0-4A1.53,1.53,0,1,0,8.1,7.26,1.53,1.53,0,0,0,6.57,5.73Z"/></g></g></g></svg>