<?xml version="1.0" standalone="no"?><!DOCTYPE svg PUBLIC "-//W3C//DTD SVG 1.1//EN" "http://www.w3.org/Graphics/SVG/1.1/DTD/svg11.dtd"><svg t="1543232568159" class="icon" style="" viewBox="0 0 1024 1024" version="1.1" xmlns="http://www.w3.org/2000/svg" p-id="3825" xmlns:xlink="http://www.w3.org/1999/xlink" width="200" height="200"><defs><style type="text/css"></style></defs><path d="M358.07 257.61a84.407 84.407 0 0 1 84.335 84.333 84.407 84.407 0 0 1-84.334 84.334 84.407 84.407 0 0 1-84.297-84.334 84.407 84.407 0 0 1 84.26-84.334m0 251.1A166.912 166.912 0 0 0 524.8 341.943a166.912 166.912 0 0 0-166.766-166.766A166.912 166.912 0 0 0 191.27 341.943a166.912 166.912 0 0 0 166.765 166.766M804.937 941.53H238.08l152.027-207.03 211.054 59.172L796.562 504.21l144.97 64.512v236.179c0 36.571-14.227 70.802-40.046 96.548a135.314 135.314 0 0 1-96.512 40.082M219.099 82.47h585.875c36.242-0.11 70.948 14.299 96.548 40.009a135.753 135.753 0 0 1 40.046 96.621v259.402l-174.629-77.678-200.813 297.435-208.677-58.514L149.65 922.661a138.423 138.423 0 0 1-27.172-21.139 135.534 135.534 0 0 1-40.01-96.548V219.063c0-36.498 14.227-70.802 40.01-96.622a135.79 135.79 0 0 1 96.621-40.009M804.937 0H219.1A219.355 219.355 0 0 0 0 219.063v585.874A219.319 219.319 0 0 0 219.063 1024h585.91A219.246 219.246 0 0 0 1024 804.937V219.063A219.282 219.282 0 0 0 804.974 0" p-id="3826" fill="#e1e1e1"></path></svg>