<svg id="图层_1" data-name="图层 1" xmlns="http://www.w3.org/2000/svg" viewBox="0 0 22 22"><defs><style>.cls-1{fill:#222126;}.cls-2{fill:#302f34;}</style></defs><title>image icon</title><g id="Page-3"><g id="Artboard"><g id="image-icon"><path id="Rectangle-7-Copy-10" class="cls-1" d="M1.37,0H20.63A1.38,1.38,0,0,1,22,1.38V20.63A1.37,1.37,0,0,1,20.63,22H1.38A1.37,1.37,0,0,1,0,20.63V1.38A1.37,1.37,0,0,1,1.38,0Z"/><path id="Rectangle-11" class="cls-2" d="M6.19,11.38,11,14.13l6.19-6.19L22,12.07v6.55A1.37,1.37,0,0,1,20.63,20H1.38A1.37,1.37,0,0,1,0,18.63V15.51Z" transform="translate(0 0)"/><path id="Rectangle-11-2" data-name="Rectangle-11" class="cls-1" d="M6.19,13.38,11,16.13l6.19-6.19L22,14.07v6.55A1.37,1.37,0,0,1,20.63,22H1.38A1.37,1.37,0,0,1,0,20.63V17.51Z" transform="translate(0 0)"/><circle id="Oval-2" class="cls-2" cx="6.57" cy="7.26" r="2.44"/></g></g></g></svg>