<svg id="图层_1" data-name="图层 1" xmlns="http://www.w3.org/2000/svg" viewBox="0 0 48 48"><defs><style>.cls-1{fill:#ff4747;}.cls-2{fill:#ffe7e7;}</style></defs><title>image icon@2x</title><g id="扫描绑定_登录注册_找回密码_修改密码" data-name="扫描绑定+登录注册+找回密码／修改密码"><g id="image-icon"><g id="Rectangle-7-Copy-10"><g id="path-1"><rect class="cls-1" width="48" height="48" rx="3" ry="3"/></g><path class="cls-1" d="M44,48H4a4,4,0,0,1-4-4V4A4,4,0,0,1,4,0H44a4,4,0,0,1,4,4V44A4,4,0,0,1,44,48ZM4,2A2,2,0,0,0,2,4V44a2,2,0,0,0,2,2H44a2,2,0,0,0,2-2V4a2,2,0,0,0-2-2Z"/></g><g id="Rectangle-11"><g id="path-2"><path class="cls-2" d="M13.5,24,24,30,37.5,16.5l10.5,9V45a3,3,0,0,1-3,3H3a3,3,0,0,1-3-3V33Z"/></g><path class="cls-1" d="M45,48H3a3,3,0,0,1-3-3V33l13.5-9L24,30,37.5,16.5l10.5,9V45A3,3,0,0,1,45,48ZM2,34.07V45a1,1,0,0,0,1,1H45a1,1,0,0,0,1-1V26.42l-8.39-7.2L24.33,32.49,13.58,26.35Z"/></g><g id="Path-2-2" data-name="Path-2"><path class="cls-1" d="M28.5,35.5a1,1,0,0,1-.71-1.71L30.62,31A1,1,0,0,1,32,32.38l-2.83,2.83A1,1,0,0,1,28.5,35.5Zm5.66-5.66a1,1,0,0,1-.71-1.71l2.83-2.83a1,1,0,0,1,1.41,1.41l-2.83,2.83A1,1,0,0,1,34.16,29.84Z"/></g><g id="Oval-2"><g id="path-3"><circle class="cls-1" cx="14.33" cy="15.83" r="5.33"/></g><path class="cls-2" d="M14.33,21.17a5.33,5.33,0,1,1,5.33-5.33A5.34,5.34,0,0,1,14.33,21.17Zm0-8.67a3.33,3.33,0,1,0,3.33,3.33A3.34,3.34,0,0,0,14.33,12.5Z"/></g></g></g></svg>