<svg id="图层_1" data-name="图层 1" xmlns="http://www.w3.org/2000/svg" viewBox="0 0 44 44"><defs><style>.cls-1{opacity:0.2;}.cls-2{fill:#fff;}</style></defs><title>loading</title><g id="_19_05_05-优化" data-name="19/05/05-优化"><g id="loading"><g id="Fill-1" class="cls-1"><path class="cls-2" d="M22,0A22,22,0,1,0,44,22,22,22,0,0,0,22,0m0,4.4A17.6,17.6,0,1,1,4.4,22,17.62,17.62,0,0,1,22,4.4"/></g><path id="Fill-3" class="cls-2" d="M44,21.94v0s0-.06,0-.08A22,22,0,0,0,22.19,0h-.05a2.2,2.2,0,0,0,0,4.4h0A17.62,17.62,0,0,1,39.6,22h0A2.19,2.19,0,0,0,44,22h0s0,0,0-.06"/></g></g></svg>