<?xml version="1.0" encoding="UTF-8"?>
<svg width="32px" height="32px" viewBox="0 0 32 32" version="1.1" xmlns="http://www.w3.org/2000/svg" xmlns:xlink="http://www.w3.org/1999/xlink">
    <!-- Generator: Sketch 52.5 (67469) - http://www.bohemiancoding.com/sketch -->
    <title>Page 1</title>
    <desc>Created with Sketch.</desc>
    <defs>
        <polygon id="path-1" points="0.11688 0.00536 17.6 0.00536 17.6 17.53816 0.11688 17.53816"></polygon>
    </defs>
    <g id="Page-1" stroke="none" stroke-width="1" fill="none" fill-rule="evenodd">
        <g id="播放视频-加载" transform="translate(-318.000000, -172.000000)">
            <g id="Page-1" transform="translate(318.000000, 172.000000)">
                <path d="M16,0 C7.1632,0 0,7.1632 0,16 C0,24.8368 7.1632,32 16,32 C24.8368,32 32,24.8368 32,16 C32,7.1632 24.8368,0 16,0 M16,3.2 C23.0576,3.2 28.8,8.9424 28.8,16 C28.8,23.0576 23.0576,28.8 16,28.8 C8.9424,28.8 3.2,23.0576 3.2,16 C3.2,8.9424 8.9424,3.2 16,3.2" id="Fill-1" fill-opacity="0.2" fill="#FFFFFF"></path>
                <g id="Group-5" transform="translate(14.400000, 0.000000)">
                    <mask id="mask-2" fill="white">
                        <use xlink:href="#path-1"></use>
                    </mask>
                    <g id="Clip-4"></g>
                    <path d="M17.59768,15.95896 C17.59848,15.95176 17.60008,15.94536 17.60008,15.93816 C17.60008,15.91736 17.59448,15.89736 17.59368,15.87656 C17.52728,7.14376 10.46888,0.08136 1.73768,0.00696 C1.73048,0.00696 1.72408,0.00536 1.71688,0.00536 C1.71448,0.00536 1.71288,0.00536 1.71048,0.00536 C1.70728,0.00536 1.70328,0.00536 1.70008,0.00536 L1.70008,0.00696 C0.82408,0.01576 0.11688,0.72696 0.11688,1.60536 C0.11688,2.48296 0.82408,3.19416 1.70008,3.20376 L1.70008,3.20536 C8.71208,3.25976 14.40008,8.97576 14.40008,15.99976 L14.40648,15.99976 C14.43928,16.85416 15.13768,17.53816 16.00008,17.53816 C16.86248,17.53816 17.56088,16.85416 17.59368,15.99976 L17.60008,15.99976 C17.60008,15.98616 17.59768,15.97256 17.59768,15.95896" id="Fill-3" fill="#FFFFFF" mask="url(#mask-2)"></path>
                </g>
            </g>
        </g>
    </g>
</svg>