<svg id="图层_1" data-name="图层 1" xmlns="http://www.w3.org/2000/svg" viewBox="0 0 26.85 26.85"><defs><style>.cls-1{fill:#4e65ef;}.cls-2{fill:#c9cff1;}</style></defs><title>mining icon01</title><g id="扫描绑定_登录注册_找回密码_修改密码" data-name="扫描绑定+登录注册+找回密码／修改密码"><g id="mining-icon01"><path id="Rectangle-22" class="cls-1" d="M22.19,4.81a2,2,0,0,1,0,2.83l-4.24,4.24a2,2,0,1,1-2.83-2.83l4.24-4.24A2,2,0,0,1,22.19,4.81Z" transform="translate(-0.17 0.02)"/><path id="Path" class="cls-2" d="M21.49,5.51a1,1,0,0,0-1.41,0L15.83,9.76a1,1,0,0,0,1.41,1.41l4.24-4.24A1,1,0,0,0,21.49,5.51Z" transform="translate(-0.17 0.02)"/><path id="Combined-Shape" class="cls-1" d="M13,5.51,21.49,14a4,4,0,0,1,0,5.66L17.24,23.9A10,10,0,0,1,3.1,9.76L7.34,5.51A4,4,0,0,1,13,5.51Zm1.41,7.07a1,1,0,0,0-1.41,0L9.46,16.12a1,1,0,0,0,1.41,1.41L14.41,14A1,1,0,0,0,14.41,12.59Z" transform="translate(-0.17 0.02)"/><path id="Rectangle-21" class="cls-1" d="M19.36.56l7.07,7.07a2,2,0,0,1,0,2.83h0a2,2,0,0,1-2.83,0L16.54,3.39a2,2,0,0,1,0-2.83h0A2,2,0,0,1,19.36.56Z" transform="translate(-0.17 0.02)"/></g></g></svg>