<svg id="图层_1" data-name="图层 1" xmlns="http://www.w3.org/2000/svg" viewBox="0 0 26.85 26.85"><defs><style>.cls-1{fill:#979797;}.cls-2{fill:#d8d8d8;}.cls-3{fill:#fff;}</style></defs><title>mining icon02</title><g id="扫描绑定_登录注册_找回密码_修改密码" data-name="扫描绑定+登录注册+找回密码／修改密码"><g id="mining-icon02"><path id="Rectangle-22" class="cls-1" d="M22.19,4.81a2,2,0,0,1,0,2.83l-4.24,4.24a2,2,0,1,1-2.83-2.83l4.24-4.24A2,2,0,0,1,22.19,4.81Z" transform="translate(-0.17 0.02)"/><path id="Path" class="cls-2" d="M21.49,5.51a1,1,0,0,0-1.41,0L15.83,9.76a1,1,0,0,0,1.41,1.41l4.24-4.24A1,1,0,0,0,21.49,5.51Z" transform="translate(-0.17 0.02)"/><path id="Rectangle-20" class="cls-1" d="M13,5.51,21.49,14a4,4,0,0,1,0,5.66L17.24,23.9A10,10,0,0,1,3.1,9.76L7.34,5.51A4,4,0,0,1,13,5.51Z" transform="translate(-0.17 0.02)"/><path id="Path-2" data-name="Path" class="cls-3" d="M12.29,6.22a3,3,0,0,0-4.24,0L3.81,10.46A9,9,0,0,0,16.54,23.19l4.24-4.24a3,3,0,0,0,0-4.24Z" transform="translate(-0.17 0.02)"/><path id="Rectangle-21" class="cls-1" d="M19.36.56l7.07,7.07a2,2,0,1,1-2.83,2.83L16.54,3.39A2,2,0,0,1,19.36.56Z" transform="translate(-0.17 0.02)"/><path id="Path-3" data-name="Path" class="cls-2" d="M18.66,1.27a1,1,0,0,0-1.41,1.41l7.07,7.07a1,1,0,1,0,1.41-1.41Z" transform="translate(-0.17 0.02)"/><path id="Rectangle-23" class="cls-1" d="M14.41,12.59h0a1,1,0,0,1,0,1.41l-3.54,3.54a1,1,0,0,1-1.41,0h0a1,1,0,0,1,0-1.41L13,12.59A1,1,0,0,1,14.41,12.59Z" transform="translate(-0.17 0.02)"/></g></g></svg>