<svg id="图层_1" data-name="图层 1" xmlns="http://www.w3.org/2000/svg" viewBox="0 0 48 48"><defs><style>.cls-1{fill:#ff4747;}.cls-2{fill:#fff;}</style></defs><title>music icon</title><g id="文件模块"><g id="music-icon"><g id="Rectangle-7-Copy-3"><g id="path-1"><path class="cls-1" d="M7.33,5.33H46a2,2,0,0,1,2,2V45a3,3,0,0,1-3,3H7.33a2,2,0,0,1-2-2V7.33A2,2,0,0,1,7.33,5.33Z" transform="translate(0 0)"/></g><path class="cls-1" d="M45,48H7.33a2,2,0,0,1-2-2V7.33a2,2,0,0,1,2-2H46a2,2,0,0,1,2,2V45A3,3,0,0,1,45,48ZM7.33,7.33h0V46H45a1,1,0,0,0,1-1V7.33Z" transform="translate(0 0)"/></g><g id="Combined-Shape"><g id="path-2"><path class="cls-1" d="M2.67,42.65a3,3,0,0,1-2.67-3V3A3,3,0,0,1,3,0H39.67a3,3,0,0,1,3,2.67h-38a2,2,0,0,0-2,2Z" transform="translate(0 0)"/></g><path class="cls-1" d="M2.67,43.39,1,41.9a3,3,0,0,1-1-2.24V3A3,3,0,0,1,3,0H39.67A3,3,0,0,1,41.9,1l1.49,1.67H4.67a2,2,0,0,0-2,2Z" transform="translate(0 0)"/></g><g id="Shape"><path class="cls-2" d="M35.1,14.76,25,17.94a3.25,3.25,0,0,0-2.22,2.93V31.81a3.48,3.48,0,0,0-2.37-.27C17.95,31.9,16,33.78,16,35.76s1.95,3.2,4.36,2.84a4.56,4.56,0,0,0,4.17-4.16V23.88c0-.87,1-1.25,1-1.25l9-2.88s1-.34,1,.6v8.72A4.35,4.35,0,0,0,33,28.73c-2.41.3-4.36,2.15-4.36,4.13S30.57,36.09,33,35.8s4.36-2.15,4.36-4.13V16.37A1.64,1.64,0,0,0,35.1,14.76Z" transform="translate(0 0)"/></g></g></g></svg>