<svg id="图层_1" data-name="图层 1" xmlns="http://www.w3.org/2000/svg" viewBox="0 0 21.83 21.83"><defs><style>.cls-1{fill:#ff4747;}.cls-2{fill:#fff;}</style></defs><title>music icon</title><g id="Page-3"><g id="Artboard"><g id="music-icon"><g id="Rectangle-7-Copy-3"><g id="path-1"><rect class="cls-1" width="21.83" height="21.83" rx="1.02" ry="1.02"/></g><path class="cls-1" d="M20.46,22H1.71A1.54,1.54,0,0,1,.17,20.47V1.71A1.54,1.54,0,0,1,1.71.17H20.46A1.54,1.54,0,0,1,22,1.71V20.47A1.54,1.54,0,0,1,20.46,22ZM1.71,1.19a.51.51,0,0,0-.51.51V20.47a.51.51,0,0,0,.51.51H20.46a.51.51,0,0,0,.51-.51V1.71a.51.51,0,0,0-.51-.51Z" transform="translate(-0.17 -0.17)"/></g><g id="Shape"><path class="cls-2" d="M15.4,5,10.21,6.62a1.66,1.66,0,0,0-1.14,1.5v5.6a1.78,1.78,0,0,0-1.21-.14,2.47,2.47,0,0,0-2.23,2.16c0,1,1,1.63,2.23,1.45A2.33,2.33,0,0,0,10,15.07V9.66c0-.45.53-.64.53-.64l4.59-1.47s.51-.17.51.3v4.46a2.23,2.23,0,0,0-1.31-.17,2.41,2.41,0,0,0-2.23,2.11c0,1,1,1.65,2.23,1.5a2.41,2.41,0,0,0,2.23-2.11V5.82A.84.84,0,0,0,15.4,5Z" transform="translate(-0.17 -0.17)"/></g></g></g></g></svg>