<svg id="图层_1" data-name="图层 1" xmlns="http://www.w3.org/2000/svg" viewBox="0 0 43.67 46"><defs><style>.cls-1,.cls-2{fill:#78777c;}.cls-1{opacity:0.2;}.cls-3{fill:none;stroke:#78777c;}.cls-4{fill:#333237;}</style></defs><title>NoResources</title><g id="_19_05_05-优化" data-name="19/05/05-优化"><g id="无搜索结果"><g id="NoResources"><path id="Fill-3" class="cls-1" d="M22,.75H1.57A1.17,1.17,0,0,0,.39,1.93L.81,41.17A1.17,1.17,0,0,0,2,42.35l28.82-.17A1.17,1.17,0,0,0,32,41L31.57,1.83A1.23,1.23,0,0,0,30.39.58Z" transform="translate(0)"/><path id="Fill-5" class="cls-2" d="M24,42H2a.88.88,0,0,1-1-1V2.14C1,1.48,1.34,1,2,1H30c.66,0,1,.46,1,1.13V27a4.3,4.3,0,0,1,1,0V2a2,2,0,0,0-2-2H1.94A2,2,0,0,0,0,2V41a2,2,0,0,0,2,2H25c-.22-.22-.48-.13-.7-.28Z" transform="translate(0)"/><path id="Rectangle" class="cls-3" d="M31.5,9.5v26h7V11A1.5,1.5,0,0,0,37,9.5Z" transform="translate(0)"/><path id="Fill-10" class="cls-4" d="M30,28h-.59A8,8,0,0,0,27.47,43.6a8,8,0,0,0,7.68-13.66A7.72,7.72,0,0,0,30,28Z" transform="translate(0)"/><path id="Fill-12" class="cls-2" d="M38.24,42.13,39.17,41l4.5,3.87L42.74,46ZM30,28h-.59a8,8,0,0,0-4.58,14,7.84,7.84,0,0,0,8.79,1A8,8,0,0,0,30,28Zm0,16.76a8.43,8.43,0,1,1,.66,0ZM7,27H20V26H7Zm0-4H20V22H7Zm10-5h8V17H17Zm0-5h8V12H17Z" transform="translate(0)"/><rect id="Rectangle-4" class="cls-3" x="7.5" y="11.5" width="7" height="7" rx="2" ry="2"/></g></g></g></svg>