<svg id="图层_1" data-name="图层 1" xmlns="http://www.w3.org/2000/svg" viewBox="0 0 43.67 46"><defs><style>.cls-1,.cls-2{fill:#78777c;}.cls-1{opacity:0.2;}.cls-3{fill:#333237;}</style></defs><title>NoRewards</title><g id="_19_05_05-优化" data-name="19/05/05-优化"><g id="没有挖矿收益"><g id="Rewards"><path id="Fill-3" class="cls-1" d="M29.25,4.32H22.38C22.38,4.46,22.15,6,22,6H8.94c-.07,0,.07-1.46,0-1.54s-.07-.07-.07-.15H2c-.66,0-1.19-.07-1.19.59V41.17A1.17,1.17,0,0,0,2,42.35H29.24c.67,0,1.76-.68,1.76-1.35V4.82c0-.66.24-.66-.43-.66Z" transform="translate(0)"/><path id="Fill-5" class="cls-2" d="M9,3c0-.14.85,0,1,0s1-1.07,1-1.64V1.21A.19.19,0,0,1,11.26,1L19.71.89a.19.19,0,0,1,.22.21v.21c0,.57,0,1.68.54,1.68Q22,3,22,3.11T22,5c0,.14.15,1,0,1H9.22C9.07,6,9,5.56,9,5.41ZM24,42H2a.88.88,0,0,1-1-1V6.13C1,5.47,1.34,5,2,5H8.06v.39c0,.3-.15,1.17.07,1.39A1.74,1.74,0,0,0,8.85,7H22a1,1,0,0,0,1-1V5h7c.66,0,1,.46,1,1.13V27a4.3,4.3,0,0,1,1,0V6a2,2,0,0,0-2-2H23V2.52c0-.59-.18-1-.77-1h-.89a.2.2,0,0,1-.22-.22V1a1,1,0,0,0-1-1h-9a1.06,1.06,0,0,0-1,1v.22c0,.07,0,.07-.07.15s-.07.07-.15.07H9C8.17,1.48,8,2,8,2V4H1.94A2,2,0,0,0,0,6V41a2,2,0,0,0,2,2H25c-.22-.22-.48-.13-.7-.28Z" transform="translate(0)"/><path id="Fill-10" class="cls-3" d="M35.15,29.94A7.72,7.72,0,0,0,30,28h-.59A8,8,0,0,0,27.47,43.6a8,8,0,0,0,7.68-13.66Z" transform="translate(0)"/><path id="Fill-12" class="cls-2" d="M38.24,42.13,39.17,41l4.5,3.87L42.74,46ZM30,28h-.59a8,8,0,0,0-4.58,14,7.84,7.84,0,0,0,8.79,1A8,8,0,0,0,30,28Zm0,16.76a8.43,8.43,0,1,1,.66,0ZM7,29H20V28H7Zm0-4H20V24H7Zm0-4H25V20H7Zm0-4H25V16H7Zm0-4H25V12H7Z" transform="translate(0)"/><path id="Fill-15" class="cls-2" d="M34.78,15a.59.59,0,0,1-.44-.74l1.4-5.76L40,15.62l.44.74Zm4.8-1.55L35.82,7,31,5.84v.78l4.12,1-1.55,6.28a1.38,1.38,0,0,0,1,1.7l6.28,1.55L37.22,31.83h.36l0,.67.24.26,3.78-15.22.07-.59Z" transform="translate(0)"/></g></g></g></svg>