<svg id="图层_1" data-name="图层 1" xmlns="http://www.w3.org/2000/svg" viewBox="0 0 22 22"><defs><style>.cls-1{fill:#ffbbc0;}.cls-2{fill:#ff5562;}.cls-3{fill:#fff;}</style></defs><title>pdf icon</title><g id="Page-3"><g id="Artboard"><g id="pdf-icon"><rect id="Rectangle-38" class="cls-1" width="6" height="22" rx="0.92" ry="0.92"/><path id="Combined-Shape" class="cls-2" d="M15.13,0h5.6a1.32,1.32,0,0,1,.89.33A1.1,1.1,0,0,1,22,1.1V20.9a1,1,0,0,1-.38.77,1.32,1.32,0,0,1-.89.33H3.28a1.36,1.36,0,0,1-.89-.33A1,1,0,0,1,2,20.9V1.1A1.1,1.1,0,0,1,2.38.33,1.32,1.32,0,0,1,3.28,0Z" transform="translate(0 0)"/><path id="Shape" class="cls-3" d="M16.51,16.61c-1.16,0-2.18-2-2.73-3.31a19.73,19.73,0,0,0-2.9-1,7.42,7.42,0,0,1-3.43,1.43,1.33,1.33,0,0,1-1.38-1,1.14,1.14,0,0,1,.13-1A2.14,2.14,0,0,1,8,11.12a11.69,11.69,0,0,1,2.72.39,16.44,16.44,0,0,0,2-1.64c-.28-1.3-.57-3.41.18-4.37a1.41,1.41,0,0,1,1.61-.41,1.49,1.49,0,0,1,1.12,1c.31,1.27-1.12,3-2.09,4a19,19,0,0,0,.84,2.62c1.39.63,3,1.56,3.23,2.59a1,1,0,0,1-.31,1A1.17,1.17,0,0,1,16.51,16.61ZM14.8,13.78c.7,1.43,1.36,2.1,1.71,2.1a.37.37,0,0,0,.24-.11.29.29,0,0,0,.11-.3C16.78,15.1,16.19,14.49,14.8,13.78ZM8,11.86c-.9,0-1.16.22-1.23.32a.44.44,0,0,0,0,.39c.06.22.2.45.68.45a5.38,5.38,0,0,0,2.42-.93A9.34,9.34,0,0,0,8,11.86Zm3.63-.11c.59.17,1.19.37,1.76.6-.2-.54-.37-1.1-.51-1.64C12.49,11.06,12.07,11.42,11.64,11.75Zm2.28-6a.59.59,0,0,0-.48.22c-.39.48-.42,1.71-.13,3.28C14.43,8,15,6.91,14.89,6.32c0-.09-.09-.35-.61-.5A1,1,0,0,0,13.92,5.74Z" transform="translate(0 0)"/></g></g></g></svg>