<svg id="图层_1" data-name="图层 1" xmlns="http://www.w3.org/2000/svg" viewBox="0 0 48 48"><defs><style>.cls-1{fill:#ffbbc0;}.cls-2{fill:#ff5562;}.cls-3{fill:#fff;}</style></defs><title>pdf icon@2x</title><g id="扫描绑定_登录注册_找回密码_修改密码" data-name="扫描绑定+登录注册+找回密码／修改密码"><g id="pdf-icon"><rect id="Rectangle-38" class="cls-1" width="14.67" height="48" rx="2" ry="2"/><path id="Shape" class="cls-2" d="M8.05,0a2.79,2.79,0,0,0-1.9.72A2.41,2.41,0,0,0,5.33,2.4V45.6a2.18,2.18,0,0,0,.82,1.68,2.87,2.87,0,0,0,1.9.72H45.28a2.79,2.79,0,0,0,1.9-.72A2.24,2.24,0,0,0,48,45.6V14.67L33.33,0Z"/><path id="Shape-2" data-name="Shape" class="cls-1" d="M48,14.67H35.92a2.65,2.65,0,0,1-2.59-2.59V0Z"/><path id="Shape-3" data-name="Shape" class="cls-3" d="M34.92,40c-2.52,0-4.76-4.39-6-7.23a43,43,0,0,0-6.33-2.15c-1.88,1.26-5,3.13-7.49,3.13a2.9,2.9,0,0,1-3-2.11,2.48,2.48,0,0,1,.28-2.27q1-1.34,4-1.34a25.51,25.51,0,0,1,5.93.85,35.87,35.87,0,0,0,4.28-3.57c-.6-2.84-1.24-7.43.4-9.54a3.07,3.07,0,0,1,3.52-.89A3.24,3.24,0,0,1,33,17.14c.68,2.76-2.44,6.5-4.56,8.69a41.4,41.4,0,0,0,1.84,5.73c3,1.38,6.65,3.41,7,5.64a2.26,2.26,0,0,1-.68,2.11A2.56,2.56,0,0,1,34.92,40ZM31.2,33.83c1.52,3.13,3,4.59,3.72,4.59a.8.8,0,0,0,.52-.24.64.64,0,0,0,.24-.65C35.52,36.71,34.24,35.37,31.2,33.83ZM16.39,29.64c-2,0-2.52.49-2.68.69a1,1,0,0,0,0,.85c.12.49.44,1,1.48,1a11.74,11.74,0,0,0,5.28-2A20.39,20.39,0,0,0,16.39,29.64Zm7.93-.24c1.28.37,2.6.81,3.84,1.3-.44-1.18-.8-2.4-1.12-3.57C26.15,27.9,25.23,28.67,24.31,29.4Zm5-13.12a1.28,1.28,0,0,0-1,.49c-.84,1.06-.92,3.74-.28,7.15,2.44-2.64,3.76-5.08,3.44-6.38,0-.2-.2-.77-1.32-1.1A2.15,2.15,0,0,0,29.28,16.28Z"/></g></g></svg>