<svg id="图层_1" data-name="图层 1" xmlns="http://www.w3.org/2000/svg" viewBox="0 0 48 48"><defs><style>.cls-1{fill:#ff7d24;}.cls-2,.cls-3,.cls-5{fill:#fff;}.cls-2{opacity:0.95;}.cls-2,.cls-3{isolation:isolate;}.cls-3{opacity:0.2;}.cls-4{fill:#ff974f;}</style></defs><title>ppt icon@2x</title><g id="扫描绑定_登录注册_找回密码_修改密码" data-name="扫描绑定+登录注册+找回密码／修改密码"><g id="ppt-icon"><rect id="Rectangle-7-Copy-12" class="cls-1" width="48" height="48" rx="2" ry="2"/><path id="Rectangle-16" class="cls-2" d="M2,0H16V6a2,2,0,0,1-2,2H0V2A2,2,0,0,1,2,0Z"/><path id="ppt" class="cls-1" d="M5.74,4.52A1.8,1.8,0,0,0,6,3.39a2.11,2.11,0,0,0-.13-.79A.91.91,0,0,0,5,2a.91.91,0,0,0-.92.67,2.65,2.65,0,0,0-.13.91,1.93,1.93,0,0,0,.13.76A.91.91,0,0,0,5,4.9.92.92,0,0,0,5.74,4.52Zm-2.42-3H4V2a1.56,1.56,0,0,1,.42-.4,1.36,1.36,0,0,1,.77-.21,1.44,1.44,0,0,1,1.11.5A2,2,0,0,1,6.7,3.33,2.19,2.19,0,0,1,6,5.12a1.48,1.48,0,0,1-1,.34,1.31,1.31,0,0,1-.73-.19A1.67,1.67,0,0,1,4,4.9v2H3.33Zm6.5,3a1.8,1.8,0,0,0,.3-1.13A2.11,2.11,0,0,0,10,2.6a1,1,0,0,0-1.83,0A2.65,2.65,0,0,0,8,3.55a1.93,1.93,0,0,0,.13.76,1,1,0,0,0,1.67.22Zm-2.42-3H8V2a1.56,1.56,0,0,1,.42-.4,1.36,1.36,0,0,1,.77-.21,1.44,1.44,0,0,1,1.11.5,2,2,0,0,1,.45,1.43,2.19,2.19,0,0,1-.66,1.79,1.48,1.48,0,0,1-1,.34,1.31,1.31,0,0,1-.73-.19A1.67,1.67,0,0,1,8,4.9v2H7.4ZM11.66.43h.65V1.5h.61V2h-.61v2.5a.27.27,0,0,0,.14.27.58.58,0,0,0,.25,0h.23v.51l-.23,0h-.26a.7.7,0,0,1-.61-.23,1,1,0,0,1-.16-.6V2h-.52V1.5h.52Z"/><g id="Group-7"><path id="Combined-Shape" class="cls-3" d="M4,9.33H22.67V12H4Zm0,5.33H22.67v2.67H4ZM4,20H22.67v2.67H4Zm0,5.33H22.67V28H4Zm0,5.33H44v2.67H4ZM4,36H44v2.67H4Z"/><path id="Combined-Shape-2" data-name="Combined-Shape" class="cls-4" d="M34.67,10.7v8H41.3a7.33,7.33,0,1,1-7.3-8Q34.34,10.67,34.67,10.7Z"/><path id="Combined-Shape-3" data-name="Combined-Shape" class="cls-4" d="M42.64,17.3H36v-8a7.33,7.33,0,0,1,6.67,7.3Q42.67,17,42.64,17.3Z"/></g><path id="P" class="cls-5" d="M21.11,34.67h-6a.3.3,0,0,1-.32-.32V13.23a.3.3,0,0,1,.32-.32h9c6,0,8.61,3.17,8.61,7.52s-2.72,7.52-8.61,7.52H21.62a.17.17,0,0,0-.19.19v6.21A.3.3,0,0,1,21.11,34.67ZM23.7,22.38c1.47,0,2.24-.74,2.24-2s-.77-2-2.24-2H21.62a.17.17,0,0,0-.19.19v3.52a.17.17,0,0,0,.19.19Z"/></g></g></svg>