<svg id="图层_1" data-name="图层 1" xmlns="http://www.w3.org/2000/svg" viewBox="0 0 22 22"><defs><style>.cls-1{fill:#ff7d24;}.cls-2{fill:#fff;}</style></defs><title>ppt icon</title><g id="Page-3"><g id="Artboard"><g id="ppt-icon"><rect id="Rectangle-7-Copy-12" class="cls-1" width="22" height="22" rx="2" ry="2"/><path id="P" class="cls-2" d="M9.68,15.89H6.9a.14.14,0,0,1-.15-.15V6.06a.14.14,0,0,1,.15-.15H11C13.77,5.92,15,7.37,15,9.36S13.72,12.81,11,12.81H9.91a.08.08,0,0,0-.09.09v2.85A.14.14,0,0,1,9.68,15.89Zm1.19-5.63c.67,0,1-.34,1-.89s-.35-.89-1-.89h-1a.08.08,0,0,0-.09.09v1.61a.08.08,0,0,0,.09.09Z" transform="translate(0 0)"/></g></g></g></svg>