<?xml version="1.0" encoding="UTF-8"?>
<svg width="44px" height="46px" viewBox="0 0 44 46" version="1.1" xmlns="http://www.w3.org/2000/svg" xmlns:xlink="http://www.w3.org/1999/xlink">
    <!-- Generator: Sketch 52.5 (67469) - http://www.bohemiancoding.com/sketch -->
    <title>收益icon</title>
    <desc>Created with Sketch.</desc>
    <g id="Page-1" stroke="none" stroke-width="1" fill="none" fill-rule="evenodd">
        <g id="没有挖矿收益" transform="translate(-166.000000, -244.000000)">
            <g id="收益icon" transform="translate(166.000000, 244.000000)">
                <path d="M29.249,4.317 L22.381,4.317 C22.3751,4.464 22.148,6 22,6 L8.9351,6 C8.8611,6 9.0091,4.538 8.9351,4.464 C8.8621,4.391 8.8621,4.391 8.8621,4.317 L2,4.317 C1.335,4.317 0.8121,4.243 0.8121,4.908 L0.8121,41.166 C0.8121,41.83 1.3291,42.348 1.9941,42.348 L29.2431,42.348 C29.9081,42.348 31,41.664 31,41 L31,4.815 C31,4.151 31.2399,4.151 30.5749,4.151 L29.249,4.317 Z" id="Fill-3" fill-opacity="0.2" fill="#78777C"></path>
                <path d="M9,3 C9,2.85736315 9.8545364,3 10,3 C10,3 11.0450964,1.92521203 11.0450964,1.35659214 L11.0450964,1.21395528 C11.0450964,1.07131843 11.118323,1 11.2647761,1 L19.7142325,0.891287587 C19.8606856,0.891287587 19.9339122,0.962606014 19.9339122,1.10524287 L19.9339122,1.31823439 C19.9339122,1.88781804 19.8886898,3 20.4725234,3 C21.4908411,3 22.0002276,3.03623747 22.0006828,3.10871241 C22.0011381,3.18118736 22.0011381,3.82369571 22.0006828,5.03623747 C22.0006828,5.17887433 22.1461464,6 22.0006828,6 L9.21839018,6 C9.07292658,6 8.9997,5.55570547 8.9997,5.41306862 L9,3 Z M24,42 L1.9937,42 C1.3287,42 1,41.665 1,41 L1,6.129 C1,5.465 1.335,5 2,5 L8.056,5 L8.0497,5.391 C8.0497,5.686 7.895,6.557 8.117,6.778 C8.264,6.852 8.56,7 8.855,7 L22,7 C22.517,7 23,6.591 23,6 L23,5 L30,5 C30.664,5 31,5.464 31,6.129 C31,20.043 31,27 31,27 C31,27 31.705,26.926 32,27 L32,6 C32,4.893 31.107,4 30,4 L23,4 L23,2.523 C23,1.932 22.8187,1.477 22.2277,1.477 L21.3417,1.477 C21.1937,1.477 21.1197,1.403 21.1197,1.255 L21.1197,1.034 C21.1197,0.443 20.6767,0 20.0867,0 L11.0767,0 C10.5597,0 10.0427,0.443 10.0427,1.034 L10.0427,1.255 C10.0427,1.329 10.0427,1.329 9.9687,1.403 C9.8957,1.477 9.8957,1.477 9.8217,1.477 L9.0087,1.477 C8.17080688,1.477 8,2 8,2 C8,2 8,2.778 8,3 L8,3.988 L1.944,3.988 C0.836,4.062 -0.0003,4.874 -0.0003,5.981 L-0.0003,41 C-0.0003,42.108 0.892,43 2,43 L25,43 C24.778,42.778 24.5167,42.865 24.2957,42.717 L24,42 Z" id="Fill-5" fill="#78777C"></path>
                <path d="M35.1503,29.9419 C33.7483,28.6859 31.9013,28.0219 29.9813,28.0219 L29.3903,28.0219 C25.6253,28.3169 22.5233,31.2709 22.0803,35.0369 C21.6373,38.8029 23.9253,42.4209 27.4703,43.6029 C31.0153,44.7849 35.0033,43.2339 36.8493,39.9109 C38.6953,36.5879 38.0313,32.4529 35.1503,29.9419 Z" id="Fill-10" fill="#333237"></path>
                <path d="M38.2353,42.1335189 L39.1693531,41.0461 L43.6723946,44.9125811 L42.7392654,46 L38.2353,42.1335189 Z M29.9813,28.0221 L29.3903,28.0221 C26.2153,28.2431 23.4093,30.4581 22.4493,33.4861 C21.4153,36.5871 22.3753,39.9101 24.8123,42.0521 C27.2493,44.1941 30.7193,44.5631 33.5993,43.0861 C36.4803,41.6091 38.1783,38.5811 37.9573,35.3321 C37.5883,31.2711 34.1903,28.0221 29.9813,28.0221 Z M29.9813,44.7851 C25.1813,44.7851 21.3413,40.9451 21.1933,36.1451 C21.1203,31.3441 24.8863,27.3571 29.6123,27.2091 C34.4123,27.0611 38.4003,30.6801 38.6953,35.4801 C38.9913,40.2801 35.3723,44.4151 30.6463,44.7851 L29.9813,44.7851 Z M7,29 L20,29 L20,28 L7,28 L7,29 Z M7,25 L20,25 L20,24 L7,24 L7,25 Z M7,21 L25,21 L25,20 L7,20 L7,21 Z M7,17 L25,17 L25,16 L7,16 L7,17 Z M7,13 L25,13 L25,12 L7,12 L7,13 Z" id="Fill-12" fill="#78777C"></path>
                <path d="M34.7812,14.9507 C34.4122,14.8767 34.2642,14.5077 34.3392,14.2127 L35.7412,8.4517 L40.0242,15.6157 L40.4682,16.3537 L34.7812,14.9507 Z M39.5822,13.3997 L35.8152,7.0497 L30.9552,5.8397 L30.9552,6.6197 L35.0772,7.6397 L33.5262,13.9167 C33.3042,14.6557 33.8212,15.4677 34.5602,15.6157 L40.8372,17.1657 L37.2162,31.8297 L37.5802,31.8297 L37.6222,32.4967 L37.8672,32.7557 L41.6492,17.5347 L41.7222,16.9447 L39.5822,13.3997 Z" id="Fill-15" fill="#78777C"></path>
            </g>
        </g>
    </g>
</svg>