<svg id="图层_1" data-name="图层 1" xmlns="http://www.w3.org/2000/svg" viewBox="0 0 22 22"><defs><style>.cls-1{fill:#23cc9d;}.cls-2{isolation:isolate;}.cls-3{fill:#fff;}</style></defs><title>Torrent icon</title><g id="UI图"><g id="方案07-文件滑动后效果"><g id="Torrent-icon"><g id="Rectangle-2"><rect class="cls-1" width="22" height="22" rx="2" ry="2"/></g><g id="Torrent" class="cls-2"><g class="cls-2"><path class="cls-3" d="M5.08,16.57V17H4.35v2H3.8V17H3.07v-.47Z"/><path class="cls-3" d="M7.66,17.79a1.49,1.49,0,0,1-.09.55,1.11,1.11,0,0,1-.25.4,1,1,0,0,1-.38.24,1.39,1.39,0,0,1-.48.08A1.35,1.35,0,0,1,6,19a1.08,1.08,0,0,1-.39-.24,1.11,1.11,0,0,1-.26-.4,1.47,1.47,0,0,1-.09-.55,1.42,1.42,0,0,1,.1-.55,1.17,1.17,0,0,1,.26-.4A1.09,1.09,0,0,1,6,16.6a1.32,1.32,0,0,1,.46-.08,1.36,1.36,0,0,1,.47.08,1.06,1.06,0,0,1,.38.24,1.14,1.14,0,0,1,.26.4A1.47,1.47,0,0,1,7.66,17.79Zm-1.85,0a1.1,1.1,0,0,0,0,.32.75.75,0,0,0,.13.25.56.56,0,0,0,.2.16.69.69,0,0,0,.54,0,.56.56,0,0,0,.2-.16.75.75,0,0,0,.13-.25,1.12,1.12,0,0,0,0-.32,1.13,1.13,0,0,0,0-.32.75.75,0,0,0-.13-.25.57.57,0,0,0-.2-.16A.64.64,0,0,0,6.45,17a.62.62,0,0,0-.27.06.59.59,0,0,0-.2.16.73.73,0,0,0-.13.25A1.11,1.11,0,0,0,5.81,17.79Z"/><path class="cls-3" d="M8.82,16.55a1.5,1.5,0,0,1,.84.19.78.78,0,0,1,.17,1A.77.77,0,0,1,9.5,18l.15.21.16.25.15.27.14.27H9.49l-.14-.24-.14-.24-.14-.22-.14-.19H8.66V19H8.11V16.61l.37,0Zm0,.46h-.2v.66h.15a.92.92,0,0,0,.44-.08.28.28,0,0,0,.13-.26.27.27,0,0,0-.13-.25A.84.84,0,0,0,8.86,17Z"/><path class="cls-3" d="M11.16,16.55a1.5,1.5,0,0,1,.84.19.78.78,0,0,1,.17,1,.77.77,0,0,1-.34.25l.15.21.16.25.15.27.14.27h-.61l-.14-.24-.14-.24-.14-.22-.14-.19H11V19h-.55V16.61l.37,0Zm0,.46H11v.66h.15a.92.92,0,0,0,.44-.08.28.28,0,0,0,.13-.26.27.27,0,0,0-.13-.25A.84.84,0,0,0,11.19,17Z"/><path class="cls-3" d="M12.78,19V16.57h1.64V17H13.33v.48h1V18h-1v.58H14.5V19Z"/><path class="cls-3" d="M16.53,19q-.23-.42-.51-.82a8.18,8.18,0,0,0-.58-.77V19H14.9V16.57h.44l.26.28.29.36.29.4.27.39V16.57H17V19Z"/><path class="cls-3" d="M19.35,16.57V17h-.73v2h-.55V17h-.73v-.47Z"/></g></g><g id="U"><path class="cls-3" d="M13,4.88,16,5v6a4.06,4.06,0,0,1-.28,1.5,3.62,3.62,0,0,1-.87,1.38,4.09,4.09,0,0,1-1.38.87A8.33,8.33,0,0,1,11,15a8.54,8.54,0,0,1-1.49-.09,4.17,4.17,0,0,1-1.45-.41A3.62,3.62,0,0,1,7,13.63a3.18,3.18,0,0,1-.66-1.16A5.15,5.15,0,0,1,6,11V5H9v5.12a1.77,1.77,0,0,0,.58,1.26A2.21,2.21,0,0,0,11,12a2.66,2.66,0,0,0,1.55-.71A1.74,1.74,0,0,0,13,10Z"/></g></g></g></g></svg>