<svg id="图层_1" data-name="图层 1" xmlns="http://www.w3.org/2000/svg" xmlns:xlink="http://www.w3.org/1999/xlink" viewBox="0 0 11 12.04"><defs><style>.cls-1{fill:none;}.cls-2{clip-path:url(#clip-path);}.cls-3{fill:#00d1e0;}.cls-4{fill:#00d1df;}.cls-5{fill:#01d2de;}.cls-6{fill:#01d2dd;}.cls-7{fill:#01d3dc;}.cls-8{fill:#02d3db;}.cls-9{fill:#02d3da;}.cls-10{fill:#02d4d9;}.cls-11{fill:#02d4d8;}.cls-12{fill:#03d5d7;}.cls-13{fill:#03d5d6;}.cls-14{fill:#03d5d5;}.cls-15{fill:#04d6d4;}.cls-16{fill:#04d6d3;}.cls-17{fill:#04d6d2;}.cls-18{fill:#05d7d1;}.cls-19{fill:#05d7d0;}.cls-20{fill:#05d8cf;}.cls-21{fill:#05d8ce;}.cls-22{fill:#06d8cd;}.cls-23{fill:#06d9cc;}.cls-24{fill:#06d9cb;}.cls-25{fill:#07daca;}.cls-26{fill:#07dac9;}.cls-27{fill:#07dac8;}.cls-28{fill:#08dbc7;}.cls-29{fill:#08dbc6;}.cls-30{fill:#08dcc5;}.cls-31{fill:#09dcc4;}.cls-32{fill:#09dcc3;}.cls-33{fill:#09ddc2;}.cls-34{fill:#09ddc1;}.cls-35{fill:#0adec0;}.cls-36{fill:#0adebf;}.cls-37{fill:#0adebe;}.cls-38{fill:#0bdfbd;}.cls-39{fill:#0bdfbc;}.cls-40{fill:#0be0bb;}.cls-41{fill:#0ce0ba;}.cls-42{fill:#0ce0b9;}.cls-43{fill:#0ce1b8;}.cls-44{fill:#0ce1b7;}.cls-45{fill:#0de1b6;}.cls-46{fill:#0de2b5;}.cls-47{fill:#0de2b4;}.cls-48{fill:#0ee3b3;}.cls-49{fill:#0ee3b2;}.cls-50{fill:#0ee3b1;}.cls-51{fill:#0fe4b0;}.cls-52{fill:#0fe4af;}.cls-53{fill:#0fe5ae;}.cls-54{fill:#10e5ad;}.cls-55{fill:#10e5ab;}.cls-56{fill:#10e6aa;}.cls-57{fill:#10e6a9;}.cls-58{fill:#11e7a8;}.cls-59{fill:#11e7a7;}.cls-60{fill:#11e7a6;}.cls-61{fill:#12e8a5;}.cls-62{fill:#12e8a4;}.cls-63{fill:#12e9a3;}.cls-64{fill:#13e9a2;}.cls-65{fill:#13e9a1;}.cls-66{fill:#13eaa0;}.cls-67{fill:#13ea9f;}.cls-68{fill:#14ea9e;}.cls-69{fill:#14eb9d;}.cls-70{fill:#14eb9c;}.cls-71{fill:#15ec9b;}.cls-72{fill:#15ec9a;}.cls-73{fill:#15ec99;}.cls-74{fill:#16ed98;}.cls-75{fill:#16ed97;}.cls-76{fill:#16ee96;}.cls-77{fill:#16ee95;}.cls-78{fill:#17ee94;}.cls-79{fill:#17ef93;}.cls-80{fill:#17ef92;}.cls-81{fill:#18f091;}.cls-82{fill:#18f090;}.cls-83{fill:#18f08f;}.cls-84{fill:#19f18e;}.cls-85{fill:#19f18d;}.cls-86{fill:#19f28c;}.cls-87{fill:#1af28b;}.cls-88{fill:#1af28a;}.cls-89{fill:#1af389;}.cls-90{fill:#1af388;}.cls-91{fill:#1bf487;}.cls-92{fill:#1bf486;}.cls-93{fill:#1bf485;}.cls-94{fill:#1cf584;}.cls-95{fill:#1cf583;}.cls-96{fill:#1cf582;}.cls-97{fill:#1df681;}.cls-98{fill:#1df680;}.cls-99{fill:#1df77f;}.cls-100{fill:#1df77e;}.cls-101{fill:#1ef77d;}.cls-102{fill:#1ef87c;}.cls-103{fill:#1ef87b;}.cls-104{fill:#1ff97a;}.cls-105{fill:#1ff979;}.cls-106{fill:#212024;}</style><clipPath id="clip-path" transform="translate(0 0.02)"><path class="cls-1" d="M10.73,2.82,5.75.06a.52.52,0,0,0-.5,0l-5,2.75A.52.52,0,0,0,0,3.27V8.73a.52.52,0,0,0,.27.45l5,2.75a.52.52,0,0,0,.5,0l5-2.75A.52.52,0,0,0,11,8.73V3.27a.52.52,0,0,0-.27-.45"/></clipPath></defs><title>coin</title><g id="_19_05_05-优化" data-name="19/05/05-优化"><g id="挖矿-界面"><g id="挖矿图表"><g id="收益图标-模块"><g id="coin"><g id="Fill-1"><g class="cls-2"><polygon class="cls-3" points="0 11.88 0.14 12.04 0 12.04 0 11.88"/><polygon class="cls-3" points="0 11.65 0.36 12.04 0.14 12.04 0 11.88 0 11.65"/><polygon class="cls-4" points="0 11.42 0.57 12.04 0.36 12.04 0 11.65 0 11.42"/><polygon class="cls-5" points="0 11.19 0.79 12.04 0.57 12.04 0 11.42 0 11.19"/><polygon class="cls-6" points="0 10.95 1 12.04 0.79 12.04 0 11.19 0 10.95"/><polygon class="cls-7" points="0 10.72 1.21 12.04 1 12.04 0 10.95 0 10.72"/><polygon class="cls-8" points="0 10.49 1.43 12.04 1.21 12.04 0 10.72 0 10.49"/><polygon class="cls-9" points="0 10.26 1.64 12.04 1.43 12.04 0 10.49 0 10.26"/><polygon class="cls-10" points="0 10.02 1.85 12.04 1.64 12.04 0 10.26 0 10.02"/><polygon class="cls-11" points="0 9.79 2.07 12.04 1.85 12.04 0 10.02 0 9.79"/><polygon class="cls-12" points="0 9.56 2.28 12.04 2.07 12.04 0 9.79 0 9.56"/><polygon class="cls-13" points="0 9.32 2.5 12.04 2.28 12.04 0 9.56 0 9.32"/><polygon class="cls-14" points="0 9.09 2.71 12.04 2.5 12.04 0 9.32 0 9.09"/><polygon class="cls-15" points="0 8.86 2.92 12.04 2.71 12.04 0 9.09 0 8.86"/><polygon class="cls-16" points="0 8.63 3.14 12.04 2.92 12.04 0 8.86 0 8.63"/><polygon class="cls-17" points="0 8.39 3.35 12.04 3.14 12.04 0 8.63 0 8.39"/><polygon class="cls-18" points="0 8.16 3.56 12.04 3.35 12.04 0 8.39 0 8.16"/><polygon class="cls-19" points="0 7.93 3.78 12.04 3.56 12.04 0 8.16 0 7.93"/><polygon class="cls-20" points="0 7.7 3.99 12.04 3.78 12.04 0 7.93 0 7.7"/><polygon class="cls-21" points="0 7.46 4.2 12.04 3.99 12.04 0 7.7 0 7.46"/><polygon class="cls-22" points="0 7.23 4.42 12.04 4.2 12.04 0 7.46 0 7.23"/><polygon class="cls-23" points="0 7 4.63 12.04 4.42 12.04 0 7.23 0 7"/><polygon class="cls-24" points="0 6.76 4.84 12.04 4.63 12.04 0 7 0 6.76"/><polygon class="cls-25" points="0 6.53 5.06 12.04 4.84 12.04 0 6.76 0 6.53"/><polygon class="cls-26" points="0 6.3 5.27 12.04 5.06 12.04 0 6.53 0 6.3"/><polygon class="cls-27" points="0 6.07 5.49 12.04 5.27 12.04 0 6.3 0 6.07"/><polygon class="cls-28" points="0 5.83 5.7 12.04 5.49 12.04 0 6.07 0 5.83"/><polygon class="cls-29" points="0 5.6 5.91 12.04 5.7 12.04 0 5.83 0 5.6"/><polygon class="cls-30" points="0 5.37 6.13 12.04 5.91 12.04 0 5.6 0 5.37"/><polygon class="cls-31" points="0 5.14 6.34 12.04 6.13 12.04 0 5.37 0 5.14"/><polygon class="cls-32" points="0 4.9 6.55 12.04 6.34 12.04 0 5.14 0 4.9"/><polygon class="cls-33" points="0 4.67 6.77 12.04 6.55 12.04 0 4.9 0 4.67"/><polygon class="cls-34" points="0 4.44 6.98 12.04 6.77 12.04 0 4.67 0 4.44"/><polygon class="cls-35" points="0 4.21 7.19 12.04 6.98 12.04 0 4.44 0 4.21"/><polygon class="cls-36" points="0 3.97 7.41 12.04 7.19 12.04 0 4.21 0 3.97"/><polygon class="cls-37" points="0 3.74 7.62 12.04 7.41 12.04 0 3.97 0 3.74"/><polygon class="cls-38" points="0 3.51 7.83 12.04 7.62 12.04 0 3.74 0 3.51"/><polygon class="cls-39" points="0 3.27 8.05 12.04 7.83 12.04 0 3.51 0 3.27"/><polygon class="cls-40" points="0 3.04 8.26 12.04 8.05 12.04 0 3.27 0 3.04"/><polygon class="cls-41" points="0 2.81 8.47 12.04 8.26 12.04 0 3.04 0 2.81"/><polygon class="cls-42" points="0 2.58 8.69 12.04 8.47 12.04 0 2.81 0 2.58"/><polygon class="cls-43" points="0 2.34 8.9 12.04 8.69 12.04 0 2.58 0 2.34"/><polygon class="cls-44" points="0 2.11 9.12 12.04 8.9 12.04 0 2.34 0 2.11"/><polygon class="cls-45" points="0 1.88 9.33 12.04 9.12 12.04 0 2.11 0 1.88"/><polygon class="cls-46" points="0 1.65 9.54 12.04 9.33 12.04 0 1.88 0 1.65"/><polygon class="cls-47" points="0 1.41 9.76 12.04 9.54 12.04 0 1.65 0 1.41"/><polygon class="cls-48" points="0 1.18 9.97 12.04 9.76 12.04 0 1.41 0 1.18"/><polygon class="cls-49" points="0 0.95 10.18 12.04 9.97 12.04 0 1.18 0 0.95"/><polygon class="cls-50" points="0 0.71 10.4 12.04 10.18 12.04 0 0.95 0 0.71"/><polygon class="cls-51" points="0 0.48 10.61 12.04 10.4 12.04 0 0.71 0 0.48"/><polygon class="cls-52" points="0 0.25 10.82 12.04 10.61 12.04 0 0.48 0 0.25"/><polygon class="cls-53" points="0 0.02 11 12 11 12.04 10.82 12.04 0 0.25 0 0.02"/><polygon class="cls-54" points="0.2 0 11 11.77 11 12 0 0.02 0 0 0.2 0"/><polygon class="cls-55" points="0.41 0 11 11.54 11 11.77 0.2 0 0.41 0"/><polygon class="cls-56" points="0.63 0 11 11.3 11 11.54 0.41 0 0.63 0"/><polygon class="cls-57" points="0.84 0 11 11.07 11 11.3 0.63 0 0.84 0"/><polygon class="cls-58" points="1.05 0 11 10.84 11 11.07 0.84 0 1.05 0"/><polygon class="cls-59" points="1.27 0 11 10.61 11 10.84 1.05 0 1.27 0"/><polygon class="cls-60" points="1.48 0 11 10.37 11 10.61 1.27 0 1.48 0"/><polygon class="cls-61" points="1.69 0 11 10.14 11 10.37 1.48 0 1.69 0"/><polygon class="cls-62" points="1.91 0 11 9.91 11 10.14 1.69 0 1.91 0"/><polygon class="cls-63" points="2.12 0 11 9.67 11 9.91 1.91 0 2.12 0"/><polygon class="cls-64" points="2.33 0 11 9.44 11 9.67 2.12 0 2.33 0"/><polygon class="cls-65" points="2.55 0 11 9.21 11 9.44 2.33 0 2.55 0"/><polygon class="cls-66" points="2.76 0 11 8.98 11 9.21 2.55 0 2.76 0"/><polygon class="cls-67" points="2.98 0 11 8.74 11 8.98 2.76 0 2.98 0"/><polygon class="cls-68" points="3.19 0 11 8.51 11 8.74 2.98 0 3.19 0"/><polygon class="cls-69" points="3.4 0 11 8.28 11 8.51 3.19 0 3.4 0"/><polygon class="cls-70" points="3.62 0 11 8.04 11 8.28 3.4 0 3.62 0"/><polygon class="cls-71" points="3.83 0 11 7.81 11 8.04 3.62 0 3.83 0"/><polygon class="cls-72" points="4.04 0 11 7.58 11 7.81 3.83 0 4.04 0"/><polygon class="cls-73" points="4.26 0 11 7.35 11 7.58 4.04 0 4.26 0"/><polygon class="cls-74" points="4.47 0 11 7.11 11 7.35 4.26 0 4.47 0"/><polygon class="cls-75" points="4.68 0 11 6.88 11 7.11 4.47 0 4.68 0"/><polygon class="cls-76" points="4.9 0 11 6.65 11 6.88 4.68 0 4.9 0"/><polygon class="cls-77" points="5.11 0 11 6.42 11 6.65 4.9 0 5.11 0"/><polygon class="cls-78" points="5.32 0 11 6.18 11 6.42 5.11 0 5.32 0"/><polygon class="cls-79" points="5.54 0 11 5.95 11 6.18 5.32 0 5.54 0"/><polygon class="cls-80" points="5.75 0 11 5.72 11 5.95 5.54 0 5.75 0"/><polygon class="cls-81" points="5.96 0 11 5.49 11 5.72 5.75 0 5.96 0"/><polygon class="cls-82" points="6.18 0 11 5.25 11 5.49 5.96 0 6.18 0"/><polygon class="cls-83" points="6.39 0 11 5.02 11 5.25 6.18 0 6.39 0"/><polygon class="cls-84" points="6.61 0 11 4.79 11 5.02 6.39 0 6.61 0"/><polygon class="cls-85" points="6.82 0 11 4.55 11 4.79 6.61 0 6.82 0"/><polygon class="cls-86" points="7.03 0 11 4.32 11 4.55 6.82 0 7.03 0"/><polygon class="cls-87" points="7.25 0 11 4.09 11 4.32 7.03 0 7.25 0"/><polygon class="cls-88" points="7.46 0 11 3.86 11 4.09 7.25 0 7.46 0"/><polygon class="cls-89" points="7.67 0 11 3.62 11 3.86 7.46 0 7.67 0"/><polygon class="cls-90" points="7.89 0 11 3.39 11 3.62 7.67 0 7.89 0"/><polygon class="cls-91" points="8.1 0 11 3.16 11 3.39 7.89 0 8.1 0"/><polygon class="cls-92" points="8.31 0 11 2.93 11 3.16 8.1 0 8.31 0"/><polygon class="cls-93" points="8.53 0 11 2.69 11 2.93 8.31 0 8.53 0"/><polygon class="cls-94" points="8.74 0 11 2.46 11 2.69 8.53 0 8.74 0"/><polygon class="cls-95" points="8.96 0 11 2.23 11 2.46 8.74 0 8.96 0"/><polygon class="cls-96" points="9.17 0 11 2 11 2.23 8.96 0 9.17 0"/><polygon class="cls-97" points="9.38 0 11 1.76 11 2 9.17 0 9.38 0"/><polygon class="cls-98" points="9.6 0 11 1.53 11 1.76 9.38 0 9.6 0"/><polygon class="cls-99" points="9.81 0 11 1.3 11 1.53 9.6 0 9.81 0"/><polygon class="cls-100" points="10.02 0 11 1.06 11 1.3 9.81 0 10.02 0"/><polygon class="cls-101" points="10.24 0 11 0.83 11 1.06 10.02 0 10.24 0"/><polygon class="cls-102" points="10.45 0 11 0.6 11 0.83 10.24 0 10.45 0"/><polygon class="cls-103" points="10.66 0 11 0.37 11 0.6 10.45 0 10.66 0"/><polygon class="cls-104" points="10.88 0 11 0.13 11 0.37 10.66 0 10.88 0"/><polygon class="cls-105" points="11 0.13 10.88 0 11 0 11 0.13"/></g></g><g id="Combined-Shape"><path class="cls-106" d="M8,6V7c0,1.08-.93,2-2.5,2A2.35,2.35,0,0,1,3,6.65V6H2V5H3V4H4V6c-.06,1.23.56,2,1.5,2S7.05,7.58,7,6.39V4H8V5H9V6Z" transform="translate(0 0.02)"/></g></g></g></g></g></g></svg>