<svg id="图层_1" data-name="图层 1" xmlns="http://www.w3.org/2000/svg" viewBox="0 0 90 90"><defs><style>.cls-1{fill:#fff;}.cls-2{fill:#5d75f7;}</style></defs><title>ulabs icon</title><g id="我的模块"><g id="ulabs-icon"><rect id="Background-Copy" class="cls-1" width="90" height="90" rx="18" ry="18"/><path id="Combined-Shape-Copy" class="cls-2" d="M19,48.68c-.07-7.73,0-9.25,0-18.35,0-6.17,9.31-16.79,11.12-13V47.47q.1,7.51,4.33,11.44A14.35,14.35,0,0,0,45.07,63a14.7,14.7,0,0,0,10.72-4.13Q59.92,55,60,47.47V17.29c1.9-3.66,11.12,6.77,11.12,13V48.68q-.2,11.59-7.5,18.4-7.34,7-18.56,7.11a26.09,26.09,0,0,1-18.41-7.11Q19.11,60.27,19,48.68ZM45,29.88a1.59,1.59,0,0,1-1.58-1.6V17.6a1.58,1.58,0,1,1,3.16,0V28.28A1.59,1.59,0,0,1,45,29.88Z"/></g></g></svg>