<svg id="图层_1" data-name="图层 1" xmlns="http://www.w3.org/2000/svg" viewBox="0 0 24 28"><defs><style>.cls-1{fill:#4e65ef;}.cls-2{fill:#c9cff1;}</style></defs><title>user icon01</title><g id="扫描绑定_登录注册_找回密码_修改密码" data-name="扫描绑定+登录注册+找回密码／修改密码"><g id="user-icon01"><path id="Rectangle-19" class="cls-1" d="M8,0h8a2,2,0,0,1,2,2v8a2,2,0,0,1-2,2H8a2,2,0,0,1-2-2V2A2,2,0,0,1,8,0Z" transform="translate(0 0)"/><path id="Path" class="cls-2" d="M8,1A1,1,0,0,0,7,2v8a1,1,0,0,0,1,1h8a1,1,0,0,0,1-1V2a1,1,0,0,0-1-1Z" transform="translate(0 0)"/><path id="Rectangle-19-Copy" class="cls-2" d="M4,15H20a4,4,0,0,1,4,4v7a2,2,0,0,1-2,2H2a2,2,0,0,1-2-2V19A4,4,0,0,1,4,15Z" transform="translate(0 0)"/></g></g></svg>