<svg id="图层_1" data-name="图层 1" xmlns="http://www.w3.org/2000/svg" viewBox="0 0 48 48"><defs><style>.cls-1{fill:#f49600;}.cls-2{fill:#fff;}.cls-3{fill:#fdeed6;}</style></defs><title>video icon@2x</title><g id="扫描绑定_登录注册_找回密码_修改密码" data-name="扫描绑定+登录注册+找回密码／修改密码"><g id="video-icon"><g id="Rectangle-7-Copy-11"><g id="path-1"><rect class="cls-1" width="48" height="48" rx="2" ry="2"/></g><path class="cls-1" d="M45,48H3a3,3,0,0,1-3-3V3A3,3,0,0,1,3,0H45a3,3,0,0,1,3,3V45A3,3,0,0,1,45,48ZM3,2A1,1,0,0,0,2,3V45a1,1,0,0,0,1,1H45a1,1,0,0,0,1-1V3a1,1,0,0,0-1-1Z"/></g><g id="Rectangle-12"><rect class="cls-2" x="10.67" y="12" width="18.67" height="16" rx="1" ry="1"/></g><g id="Rectangle-12-Copy"><path class="cls-2" d="M31.35,16.59l6-2a1,1,0,0,1,1.32.95v9.23a1,1,0,0,1-1.32.95l-6-2a1,1,0,0,1-.68-.95V17.54A1,1,0,0,1,31.35,16.59Z"/></g><g id="Rectangle-13"><g id="path-2"><path class="cls-3" d="M0,34.67H48V45a3,3,0,0,1-3,3H3a3,3,0,0,1-3-3Z"/></g><path class="cls-1" d="M45,48H3a3,3,0,0,1-3-3V34.67H48V45A3,3,0,0,1,45,48ZM2,36.67V45a1,1,0,0,0,1,1H45a1,1,0,0,0,1-1V36.67Z"/></g><g id="Rectangle-13-2" data-name="Rectangle-13"><g id="path-3"><rect class="cls-3" x="14.67" y="34.67" width="18.67" height="13.33"/></g><path class="cls-1" d="M33.33,48H14.67V34.67H33.33ZM16.67,46H31.33V36.67H16.67Z"/></g></g></g></svg>