<svg id="图层_1" data-name="图层 1" xmlns="http://www.w3.org/2000/svg" viewBox="0 0 48 48"><defs><style>.cls-1{fill:#3fcd67;}.cls-2,.cls-3,.cls-4{fill:#fff;}.cls-2{opacity:0.2;}.cls-2,.cls-4{isolation:isolate;}.cls-4{opacity:0.95;}</style></defs><title>XLS icon@2x</title><g id="扫描绑定_登录注册_找回密码_修改密码" data-name="扫描绑定+登录注册+找回密码／修改密码"><g id="XLS-icon"><rect id="Rectangle-7-Copy-12" class="cls-1" width="48" height="48" rx="2" ry="2"/><path id="Combined-Shape" class="cls-2" d="M4,9.33h8V12H4Zm21.33,0h8V12h-8Zm-10.67,0h8V12h-8ZM36,9.33h8V12H36ZM4,14.67h8v2.67H4Zm21.33,0h8v2.67h-8Zm-10.67,0h8v2.67h-8Zm21.33,0h8v2.67H36ZM4,20h8v2.67H4Zm21.33,0h8v2.67h-8ZM14.67,20h8v2.67h-8ZM36,20h8v2.67H36ZM4,25.33h8V28H4Zm21.33,0h8V28h-8Zm-10.67,0h8V28h-8Zm21.33,0h8V28H36ZM4,30.67h8v2.67H4Zm21.33,0h8v2.67h-8Zm-10.67,0h8v2.67h-8Zm21.33,0h8v2.67H36ZM4,36h8v2.67H4Zm21.33,0h8v2.67h-8ZM14.67,36h8v2.67h-8ZM36,36h8v2.67H36Z"/><path id="E" class="cls-3" d="M13.33,34.77V13.65a.3.3,0,0,1,.32-.32H33a.3.3,0,0,1,.32.32v4.93a.3.3,0,0,1-.32.32H20.18a.17.17,0,0,0-.19.19v2.11a.17.17,0,0,0,.19.19H30.36a.3.3,0,0,1,.32.32v4.8a.3.3,0,0,1-.32.32H20.18A.17.17,0,0,0,20,27v2.3a.17.17,0,0,0,.19.19H33a.3.3,0,0,1,.32.32v4.93a.3.3,0,0,1-.32.32H13.65A.3.3,0,0,1,13.33,34.77Z"/><path id="Rectangle-16" class="cls-4" d="M2,0H16V6a2,2,0,0,1-2,2H0V2A2,2,0,0,1,2,0Z"/><path id="xls" class="cls-1" d="M3.23,2.48h.91L5.1,4l1-1.47.86,0-1.41,2L7,6.67h-.9l-1-1.57L4,6.67H3.15L4.63,4.52ZM7.65.93h.7V6.67h-.7ZM9.82,5.35a1,1,0,0,0,.18.54,1.1,1.1,0,0,0,.92.34,1.36,1.36,0,0,0,.69-.17.56.56,0,0,0,.3-.53.45.45,0,0,0-.24-.41,2.83,2.83,0,0,0-.6-.2l-.56-.14a2.72,2.72,0,0,1-.79-.3.89.89,0,0,1-.45-.79,1.21,1.21,0,0,1,.43-1,1.71,1.71,0,0,1,1.15-.37,1.6,1.6,0,0,1,1.36.55,1.2,1.2,0,0,1,.25.76h-.66a.81.81,0,0,0-.17-.43A1.07,1.07,0,0,0,10.79,3a1,1,0,0,0-.6.15.48.48,0,0,0-.21.4.5.5,0,0,0,.27.44,1.62,1.62,0,0,0,.46.17l.46.11a3.59,3.59,0,0,1,1,.36.94.94,0,0,1,.41.85,1.29,1.29,0,0,1-.42,1,1.8,1.8,0,0,1-1.29.41A1.73,1.73,0,0,1,9.56,6.4a1.6,1.6,0,0,1-.42-1Z"/></g></g></svg>