<svg id="图层_1" data-name="图层 1" xmlns="http://www.w3.org/2000/svg" viewBox="0 0 22 22"><defs><style>.cls-1{fill:#3fcd67;}.cls-2{fill:#fff;}</style></defs><title>XLS icon</title><g id="Page-3"><g id="Artboard"><g id="XLS-icon"><rect id="Rectangle-7-Copy-12" class="cls-1" width="22" height="22" rx="2" ry="2"/><path id="E" class="cls-2" d="M6.11,15.94V6.26a.14.14,0,0,1,.15-.15h8.87a.14.14,0,0,1,.15.15V8.52a.14.14,0,0,1-.15.15H9.25a.08.08,0,0,0-.09.09v1a.08.08,0,0,0,.09.09h4.66a.14.14,0,0,1,.15.15v2.2a.14.14,0,0,1-.15.15H9.25a.08.08,0,0,0-.09.09v1.06a.08.08,0,0,0,.09.09h5.88a.14.14,0,0,1,.15.15v2.26a.14.14,0,0,1-.15.15H6.26A.14.14,0,0,1,6.11,15.94Z" transform="translate(0 0)"/></g></g></g></svg>