<?xml version="1.0" standalone="no"?><!DOCTYPE svg PUBLIC "-//W3C//DTD SVG 1.1//EN" "http://www.w3.org/Graphics/SVG/1.1/DTD/svg11.dtd"><svg t="1553843187057" class="icon" style="" viewBox="0 0 1024 1024" version="1.1" xmlns="http://www.w3.org/2000/svg" p-id="6287" xmlns:xlink="http://www.w3.org/1999/xlink" width="200" height="200"><defs><style type="text/css"></style></defs><path d="M1012.6336 637.1328h-70.4V285.2864a203.52 203.52 0 0 0-203.52-203.52H292.9664a211.2 211.2 0 0 0-211.2 211.2v438.0672a211.2 211.2 0 0 0 211.2 211.2h344.1664v70.4H292.9664a281.6 281.6 0 0 1-281.6-281.6V292.9664a281.6 281.6 0 0 1 281.6-281.6h445.7472a273.92 273.92 0 0 1 273.92 273.92v351.8464z m0 0h-70.4V285.2864a203.52 203.52 0 0 0-203.52-203.52H292.9664a211.2 211.2 0 0 0-211.2 211.2v438.0672a211.2 211.2 0 0 0 211.2 211.2h344.1664v70.4H292.9664a281.6 281.6 0 0 1-281.6-281.6V292.9664a281.6 281.6 0 0 1 281.6-281.6h445.7472a273.92 273.92 0 0 1 273.92 273.92v351.8464z" p-id="6288" fill="#00C77D"></path><path d="M994.7648 955.2384l-44.288 44.2368-235.9808-236.032 44.2368-44.2368z" p-id="6289" fill="#00C77D"></path><path d="M790.1184 567.6032H233.8816v55.6032h556.2368zM567.6544 233.8816h-333.824v55.6032h333.824zM567.6544 734.464h-333.824v55.6032h333.824zM790.1184 400.7424H233.8816v55.6032h556.2368zM762.3168 762.3168v250.3168h-62.5664v-312.8832h312.832v62.5664H762.368z" p-id="6290" fill="#00C77D"></path></svg>