<?xml version="1.0" standalone="no"?><!DOCTYPE svg PUBLIC "-//W3C//DTD SVG 1.1//EN" "http://www.w3.org/Graphics/SVG/1.1/DTD/svg11.dtd"><svg t="1553843202619" class="icon" style="" viewBox="0 0 1024 1024" version="1.1" xmlns="http://www.w3.org/2000/svg" p-id="6433" xmlns:xlink="http://www.w3.org/1999/xlink" width="200" height="200"><defs><style type="text/css"></style></defs><path d="M1014.999579 637.736421h-70.709895v-353.549474a204.476632 204.476632 0 0 0-204.530526-204.476631h-447.865263A212.237474 212.237474 0 0 0 79.764211 291.947789v440.104422a212.237474 212.237474 0 0 0 212.237473 212.237473h345.788632v70.709895H291.947789a282.947368 282.947368 0 0 1-282.947368-282.947368V291.947789c0-156.294737 126.652632-282.947368 282.947368-282.947368h447.865264a275.240421 275.240421 0 0 1 275.186526 275.240421v353.549474z m0 0h-70.709895v-353.549474a204.476632 204.476632 0 0 0-204.530526-204.476631H291.947789a212.237474 212.237474 0 0 0-212.237473 212.237473v440.104422a212.237474 212.237474 0 0 0 212.237473 212.237473h345.788632v70.709895H291.947789a282.947368 282.947368 0 0 1-282.947368-282.947368V291.947789c0-156.294737 126.652632-282.947368 282.947368-282.947368h447.865264a275.240421 275.240421 0 0 1 275.186526 275.240421v353.549474z" p-id="6434" fill="#DE553B"></path><path d="M997.052632 957.332211l-44.463158 44.463157-237.136842-237.136842 44.463157-44.463158z" p-id="6435" fill="#DE553B"></path><path d="M791.444211 567.888842H232.555789v55.888842h558.888422zM567.888842 232.555789H232.555789v55.888843h335.333053zM567.888842 735.555368H232.555789v55.888843h335.333053zM791.444211 400.222316H232.555789v55.888842h558.888422zM700.631579 952.158316h279.44421v62.895158H700.631579z" p-id="6436" fill="#DE553B"></path><path d="M1014.999579 700.631579v314.368h-62.841263V700.631579z" p-id="6437" fill="#DE553B"></path></svg>